<?xml version="1.0" encoding="UTF-8"?> <svg xmlns="http://www.w3.org/2000/svg" xmlns:xlink="http://www.w3.org/1999/xlink" version="1.0" id="圖層_1" x="0px" y="0px" viewBox="0 0 210 50" style="enable-background:new 0 0 210 50;" xml:space="preserve"> <style type="text/css"> .st0{fill:none;} .st1{fill:#101010;} .st2{fill:#040000;} .st3{fill:#111111;} .st4{fill:#070001;} .st5{fill:#515151;} </style> <g> <polygon class="st0" points="42.65,18.62 37.31,15.86 36.94,15.75 36.94,15.75 36.73,16.12 42.41,19.03 42.96,18.87 43.08,18.84 "></polygon> <path class="st0" d="M20.69,26.31c0.31-0.81-0.14-1.56-0.14-1.56c-4.11,0.44-5.91,3.64-5.91,3.64c0.77,0.07,1.27,0.59,1.27,0.59 C18.17,26.1,20.69,26.31,20.69,26.31z"></path> <path class="st0" d="M44.1,20.43v1.88c0,0,2.12-1.57,2.96-3.78c0,0-0.93-0.14-1.22-0.38C45.84,18.15,45.41,19.49,44.1,20.43z"></path> <path class="st0" d="M14.96,29.83c-0.04-0.03-0.05-0.08-0.02-0.13c0.03-0.04,0.08-0.06,0.13-0.04c0.32,0.14,0.62,0.31,0.9,0.51 c0.1-0.2,0.1-0.39,0-0.58c-0.27-0.52-1.16-0.87-1.88-0.91c-0.32-0.02-0.56,0.05-0.72,0.2c-0.16,0.15-0.22,0.35-0.23,0.49 c0.44-0.09,0.75-0.1,0.77-0.1l0,0.16c-0.02,0-2.48,0.15-3.11,2.6c-0.4,1.58,0.1,2.3,0.47,2.61c-0.02-0.09-0.04-0.18-0.04-0.27 c-0.03-0.31-0.01-0.57,0.04-0.8c0.01-0.05,0.06-0.09,0.11-0.08c0.05,0,0.1,0.05,0.1,0.1c0.08,0.47,0.25,1.13,0.74,1.38l0.15,0.08 c0.12,0.06,0.23,0.12,0.34,0.18c-0.03-0.08-0.05-0.16-0.07-0.24c-0.07-0.3-0.11-0.58-0.1-0.85c0-0.05,0.04-0.09,0.09-0.1 c0.05,0,0.1,0.03,0.1,0.08c0.22,0.97,0.53,1.53,1.44,1.65c-0.16-0.18-0.29-0.41-0.38-0.66c-0.01-0.05-0.03-0.1-0.05-0.16 c-0.08-0.23-0.19-0.54-0.08-0.74c0.05-0.08,0.12-0.13,0.23-0.15c0.02,0,0.03,0,0.05,0c0.08,0,0.15,0.03,0.21,0.08 c0.07,0.06,0.11,0.15,0.11,0.25c0.03,0.74,0.41,1.54,1.18,1.52c0,0,0.01,0,0.01,0c0.32,0,0.75-0.07,1-0.37 c0.07-0.09,0.13-0.19,0.17-0.32l0.03-0.4l-0.07-0.34c-0.06,0.03-0.13,0.06-0.2,0.09c-0.02,0.22-0.16,0.41-0.38,0.51l-0.05,0.02 l-0.05-0.04c-0.04-0.05-0.02-0.1,0-0.18c0.01-0.02,0.02-0.05,0.02-0.07c0.06-0.18,0.05-0.33-0.03-0.45 c-0.08-0.12-0.24-0.2-0.45-0.21l-0.06,0l-0.02-0.07c-0.01-0.04,0.02-0.08,0.06-0.1c0,0,0.01,0,0.01-0.01 c0.02-0.03,0.08-0.11,0.15-0.19c0,0,0.01-0.02,0.02-0.04c0.18-0.23,0.28-0.56,0.25-0.9l-0.04-0.57l0.2,0.54 c0.13,0.36,0.13,0.75,0,1.1c0.16,0.07,0.29,0.22,0.34,0.4c0.29-0.23,0.48-0.44,0.61-0.68c0.17-0.5-0.01-1.1-0.15-1.5 C16.5,31.28,15.93,30.58,14.96,29.83z M12.42,31.65c-0.1,0.2-0.17,0.42-0.21,0.66c0,0.02-0.03,0.02-0.03,0 c-0.07-0.44-0.05-1.18,0.49-1.3c0.01,0,0.02,0.01,0.02,0.02C12.7,31.1,12.6,31.28,12.42,31.65z M13.31,31.74 c-0.08,0.21-0.13,0.44-0.14,0.67c0,0.02-0.02,0.02-0.03,0c-0.11-0.43-0.18-1.16,0.35-1.34c0.01,0,0.02,0.01,0.02,0.02 C13.55,31.24,13.46,31.25,13.31,31.74z M14.26,31.94c-0.05,0.22-0.07,0.45-0.06,0.69c0,0.02-0.02,0.02-0.03,0.01 c-0.16-0.41-0.31-1.14,0.19-1.38c0.01-0.01,0.02,0,0.02,0.02C14.4,31.54,14.34,31.71,14.26,31.94z"></path> <polygon class="st0" points="14.8,17.73 14.8,17.77 16.54,20.98 19.69,17.52 17.59,14.23 14.65,17.5 14.78,17.72 "></polygon> <path class="st0" d="M19.84,10.76c-0.58,0.1-1.42,0.17-2.23,0.01c-0.65,0.07-1.25,0.09-1.8,0.08c0.67,0.43,1.3,0.69,1.91,0.79 c0.05,0.01,0.1,0.04,0.13,0.08c0.03,0.04,0.05,0.1,0.04,0.15l-0.01,0.02c-0.21,0.45-0.49,1.01-0.9,1.42 c0.26-0.04,0.48-0.08,0.68-0.13L19.84,10.76z"></path> <polygon class="st0" points="21.7,15.32 19.54,12.06 17.84,13.95 19.94,17.25 "></polygon> <path class="st0" d="M20.24,10.31l0.98-1.09c-2.03,0.44-3.1,0.19-3.42-0.2c-0.12-0.14-0.15-0.31-0.08-0.48 c0.14-0.32,0.6-0.54,1.21-0.57c1.36-0.07,2.49,0.2,3.06,0.38l0.5-0.55c0.01-0.01,0.02-0.02,0.03-0.03 c-0.43-0.32-0.88-0.55-1.34-0.7l-0.61-0.19l0.64,0.04c0.65,0.04,1.32,0.23,2,0.57c-0.51-1.08-1.73-1.58-2.25-1.75 c-0.39-0.13-0.97-0.23-1.14-0.26l0.02-0.16c0.35,0.02,0.84,0.05,1.2,0.12c0.89,0.17,1.67,0.55,2.24,1.07 c-0.73-1.58-1.56-2.61-2.61-3.23c-0.75-0.44-1.75-0.57-2.28,0.15c-0.45,0.63-0.6,1.54-0.43,2.71l0.01,0.05l-0.04,0.03 c-0.41,0.27-1.16,0.85-1.5,1.67c-0.19,0.49-0.2,0.92-0.01,1.3c0.2,0.41,0.61,0.72,1.2,0.89C18.26,10.29,19.24,10.48,20.24,10.31z"></path> <path class="st0" d="M18.89,29.79v-2.65c-0.9,0.42-1.64,1.05-2.12,1.54L18.89,29.79z"></path> <path class="st0" d="M23.83,7.18c0.04,0.06,0.09,0.14,0.13,0.21L25.38,7c-0.01-0.29-0.04-0.53-0.09-0.75 c-0.09-0.38-0.19-0.78-0.43-1.1c-0.22-0.31-0.53-0.49-0.87-0.5c-0.38-0.01-0.77,0.19-1.05,0.54c0.21,0.37,0.41,0.79,0.59,1.23 C23.64,6.67,23.74,6.92,23.83,7.18z"></path> <polygon class="st0" points="26.2,24.41 22.07,22.26 22.07,31.45 26.2,33.6 "></polygon> <path class="st0" d="M18.89,24.62V20.6l-0.77-0.4l-1.42,1.55c-0.07,0.08-0.18,0.12-0.28,0.1c-0.1-0.01-0.2-0.08-0.25-0.17 l-1.53-2.84v8.73l0.06,0.03C16.31,25.72,17.86,24.94,18.89,24.62z"></path> <path class="st0" d="M24.15,38.66c-0.13-0.07-0.28-0.11-0.45-0.11c-0.15,0-0.32,0.03-0.5,0.09c-1.05,0.34-1.24,1.7-1.13,2.19 c0.09,0.41,0.42,0.93,0.9,1.13c0.2,0.08,0.4,0.11,0.62,0.07c-0.35-0.21-0.71-0.56-0.81-1.1c-0.11-0.6,0.04-1.23,0.41-1.67 C23.36,39.04,23.66,38.78,24.15,38.66z"></path> <path class="st0" d="M19.25,24.53c0.82-0.2,1.33-0.13,1.35-0.13l0.03,0.01c1.07,0.55,0.49,2.16,0.46,2.23l-0.02,0.05l-0.06,0 c-0.58-0.02-1.17,0.09-1.76,0.31v2.98l2.47,1.29v-9.11l-2.47-1.23V24.53z"></path> <polygon class="st0" points="22.69,8.55 19.78,11.79 21.95,15.05 24.89,11.82 "></polygon> <polygon class="st0" points="25.43,11.41 34.17,9.02 32.07,5.85 23.34,8.23 "></polygon> <path class="st0" d="M37.41,18.22c-0.03-0.64-0.36-1.09-0.75-1.57c-0.14-0.26-0.15-0.51-0.16-0.73l0.05-1.28 c0.01-0.14,0.02-0.29,0.02-0.43c0.01-0.27,0.03-0.54,0.05-0.81c-0.01-0.06-0.02-0.14-0.03-0.22c-0.02-0.02-0.03-0.04-0.03-0.07 c-0.01-0.1-0.02-0.21-0.05-0.33c-0.05-0.24-0.12-0.47-0.2-0.69c-0.38-0.88-1.16-1.51-2.15-1.74c-0.48,1.79-1.9,3.1-3.92,3.63 c0.11,0.05,0.2,0.11,0.26,0.18c0.05,0.04,0.13,0.16,0.09,0.3c-0.02,0.07-0.06,0.11-0.11,0.14c-0.08,0.04-0.19,0.02-0.32-0.03 c-0.03-0.01-0.75-0.26-1.33,0.74l-0.1,0.18l-0.04-0.2c0-0.02-0.09-0.47,0.32-1c0.02-0.03,0.05-0.06,0.07-0.08 c-0.17,0.02-0.34,0.03-0.5,0.03c-0.44,0.02-0.91,0.01-1.43-0.03c-0.12-0.01-0.29-0.02-0.51-0.06l0,0l-0.2-0.03 c-0.45-0.07-0.85-0.15-1.22-0.25c0.31,0.16,0.74,0.34,1.25,0.47l0.06,0.02c0.06,0.01,0.12,0.03,0.18,0.04l0.14,0.03l0.02,0.03 c0.31,0.57,0.36,1.22,0.13,1.93c-0.01,0.06-0.03,0.13-0.05,0.2c-0.16,0.69-0.41,1.72,0.01,2.22c0.06,0.05,0.08,0.15,0.02,0.23 c-0.06,0.08-0.16,0.1-0.24,0.05c-0.38-0.22-0.73-0.51-1.03-0.85c-0.28-0.36-0.54-0.63-0.9-0.81c-0.35-0.21-0.73-0.26-1.07-0.16 c-0.37,0.11-0.67,0.39-0.86,0.78c-0.22,0.51-0.22,1.14,0.02,1.73c0.25,0.61,0.71,1.09,1.26,1.32c0.35,0.15,0.77,0.19,1.2,0.11 l0.03-0.01l0.03,0.02c0.05-0.01,0.11-0.02,0.16-0.03l0,0l0.15-0.12l0.05,0.05c0.18,0.2,0.38,0.4,0.6,0.57 c0.15,0.12,0.3,0.23,0.46,0.34c0.72,0.49,1.56,0.82,2.48,1l2.28-0.69c-0.97-0.44-1.43-1.79-1.56-2.24c-0.01,0-0.02,0.01-0.02,0.01 c-0.12,0.07-0.3,0.16-0.39,0.16c-0.09,0-0.12-0.03-0.14-0.06l-0.02-0.02l0.01-0.05c0.01-0.05,0.03-0.1,0.06-0.14 c0.01-0.02,0.02-0.03,0.03-0.04c0.08-0.13,0.23-0.23,0.39-0.26c0.07-0.01,0.21-0.04,0.32-0.04c0.24-0.01,0.48,0.02,0.7,0.11 l0.07,0.03l-0.05,0.15l-0.06,0c-0.08,0-0.16,0-0.24,0c0.42,0.3,0.94,0.5,1.49,0.58c0.14,0.01,0.27,0.01,0.4,0.01 c0.8-0.04,1.32-0.24,1.59-0.62c0.1-0.13,0.16-0.28,0.21-0.42l0.02-0.06l0.13,0.02l0.02,0.07c-0.02,0.26-0.1,0.5-0.24,0.69 c-0.13,0.17-0.31,0.31-0.54,0.41c-0.02,0.25-0.1,0.74-0.34,1.15l2.89-0.88C36.88,20.3,37.51,19.36,37.41,18.22z M25.43,19.48 c-0.14-0.11-0.23-0.25-0.35-0.37c-0.06-0.07-0.13-0.16-0.19-0.24c-0.04,0.02-0.07,0.04-0.11,0.06c-0.14,0.09-0.28,0.17-0.36,0.32 c-0.05,0.1-0.06,0.21-0.05,0.33c0.01,0.12,0.03,0.24,0.07,0.35l-0.01,0.01c-0.3-0.45-0.18-1.14,0.42-1.12 c-0.21-0.25-0.45-0.47-0.81-0.33c-0.19,0.06-0.37,0.21-0.52,0.37l-0.03-0.02c0.18-0.34,0.53-0.64,0.93-0.61 c0.6,0.09,1,0.65,1.03,1.24C25.46,19.47,25.43,19.48,25.43,19.48z M31.61,18.41c-0.06,0.19-0.14,0.34-0.25,0.46 c0.01,0.01,0.02,0.02,0.03,0.03c0.01,0.01,0.04,0.06,0.02,0.11c-0.01,0.03-0.03,0.04-0.06,0.05c0,0-0.01,0.01-0.02,0.01 c0,0,0,0,0,0c-0.03,0-0.05-0.02-0.1-0.08c-0.53-0.59-1.21-0.74-2.02-0.42c-0.03,0.01-0.07,0-0.08-0.03c-0.01-0.03,0-0.07,0.03-0.09 c0.02-0.01,0.2-0.1,0.45-0.17c-0.13-0.25-0.22-0.52-0.28-0.81c-0.07-0.38-0.07-0.75,0.01-1.07c0.08-0.32,0.23-0.58,0.44-0.73 c0.21-0.15,0.49-0.19,0.75-0.1c0.24,0.08,0.46,0.26,0.66,0.53c0.2,0.27,0.35,0.6,0.44,0.97c0,0,0,0,0,0 c0.02,0.1,0.04,0.2,0.06,0.29C31.73,17.76,31.71,18.11,31.61,18.41z M33.69,13.03c0.88-0.27,1.3,0.44,1.38,0.56 c0.07,0.12,0.1,0.27,0.09,0.24c-0.01-0.03-0.11-0.1-0.11-0.1c-0.43-0.4-0.99-0.4-1.12-0.36c-0.13,0.04-0.46,0.21-0.5,0 C33.39,13.16,33.69,13.03,33.69,13.03z M35.85,18.01c-0.61-0.11-1.11,0-1.5,0.3c-0.11,0.26-0.37,0.48-0.67,0.56 c-0.03,0.01-0.06,0.02-0.08,0.02c0,0-0.01,0-0.01,0v0c0,0-0.01,0-0.01,0c-0.03,0-0.05-0.01-0.06-0.02 c-0.01-0.01-0.01-0.03-0.01-0.04c0-0.01,0.01-0.03,0.03-0.03c0.26-0.11,0.48-0.36,0.48-0.36c0.15-0.17,0.19-0.39,0.09-0.57 c-0.1-0.18-0.3-0.26-0.53-0.22c-0.39,0.06-0.7,0.35-0.83,0.48c-0.07,0.06-0.09,0.08-0.12,0.07c-0.02-0.01-0.03-0.02-0.03-0.04 c0-0.01,0-0.02,0-0.03c0-0.01,0-0.03,0.01-0.04c0.18-0.24,0.48-0.55,0.85-0.66c-0.09-0.18-0.16-0.36-0.21-0.56 c-0.1-0.36-0.12-0.72-0.06-1.04c0.04-0.22,0.14-0.53,0.39-0.72c0.2-0.15,0.47-0.2,0.72-0.12c0.23,0.07,0.45,0.23,0.65,0.47 c0.2,0.24,0.36,0.54,0.47,0.89c0.03,0.09,0.05,0.18,0.07,0.27c0.08,0.37,0.08,0.72,0,1.02c-0.02,0.06-0.03,0.12-0.06,0.18 c0.27,0.02,0.45,0.08,0.46,0.08c0.03,0.01,0.05,0.05,0.04,0.08C35.91,18,35.88,18.02,35.85,18.01z"></path> <path class="st0" d="M25.16,4.45c0.03-0.02,0.06-0.05,0.09-0.08c0.16-0.14,0.35-0.26,0.54-0.35L25.86,4l0.07,0.12l-0.05,0.06 c-0.16,0.12-0.28,0.27-0.4,0.42l-0.22,0.28c0.14,0.16,0.27,0.34,0.36,0.54c0.09-0.1,0.2-0.19,0.28-0.25 c0.14-0.13,0.29-0.24,0.45-0.32l0.06-0.03l0.1,0.13l-0.03,0.05c-0.03,0.05-0.06,0.1-0.09,0.15l-0.03,0.04 c-0.02,0.05-0.05,0.12-0.08,0.19c-0.05,0.12-0.1,0.23-0.14,0.3c-0.03,0.05-0.07,0.12-0.14,0.21c-0.03,0.05-0.07,0.1-0.12,0.16 c-0.01,0.02-0.03,0.04-0.04,0.05c0,0.02,0.01,0.05,0.01,0.07c0.02,0.25,0.02,0.49-0.03,0.72l0.16-0.04 c0.74-0.96,2.09-2.53,2.93-2.32c0.27,0.07,0.36,0.22,0.39,0.33c0.1,0.39-0.32,0.93-0.63,1.25l1.37-0.37 c0.12-0.49,0.1-0.87-0.08-1.17c-0.21-0.36-0.66-0.62-1.38-0.8c-0.03-0.01-0.06-0.02-0.1-0.03c-0.07-0.02-0.16-0.04-0.21-0.06 C28.1,3.63,28,3.39,27.97,3.26l-0.01-0.03c-0.14-0.54-0.3-1.15-0.79-1.43c-0.35-0.18-0.73-0.11-1.22,0.07 c-0.41,0.28-0.93,0.97-1.07,2.68c0.03,0.02,0.06,0.04,0.09,0.07C25.03,4.55,25.1,4.49,25.16,4.45z"></path> <path class="st0" d="M35.08,16.18c-0.12-0.29-0.28-0.53-0.47-0.73c-0.13-0.13-0.32-0.28-0.55-0.31c-0.09-0.01-0.16,0-0.24,0.03 c-0.08,0.03-0.15,0.09-0.21,0.17c-0.13,0.17-0.21,0.42-0.22,0.73c0,0.01,0,0.01,0,0.02c0.13-0.19,0.31-0.26,0.51-0.2 c0.45,0.14,0.65,0.66,0.66,0.68c0.01,0.02,0,0.03-0.01,0.05l-0.27,0.33c0.13,0.01,0.34,0.03,0.41,0.12c0,0,0.01,0.01,0.01,0.02 c0,0.02,0.11,0.4,0.09,0.77c0.12-0.03,0.25-0.05,0.38-0.06c0.05-0.12,0.09-0.27,0.11-0.43c0.03-0.3-0.01-0.63-0.11-0.97 C35.14,16.33,35.11,16.25,35.08,16.18z"></path> <path class="st0" d="M31.3,16.89c-0.11-0.31-0.26-0.58-0.44-0.79c-0.13-0.14-0.33-0.32-0.57-0.36c-0.09-0.01-0.18-0.01-0.26,0.02 c-0.08,0.03-0.17,0.1-0.24,0.18c-0.14,0.17-0.24,0.42-0.27,0.74c0,0.01,0,0.03,0,0.04c0.08-0.15,0.19-0.25,0.33-0.28 c0.36-0.09,0.71,0.17,0.92,0.69c0.01,0.02,0,0.05-0.02,0.06c-0.08,0.04-0.23,0.2-0.31,0.34c0.11,0,0.31,0.02,0.46,0.06 c0.02,0.01,0.03,0.02,0.03,0.04c0.06,0.31,0.05,0.6-0.02,0.84c0.11,0.07,0.21,0.15,0.3,0.24c0.1-0.14,0.17-0.33,0.21-0.57 c0.05-0.31,0.04-0.65-0.05-1.01C31.36,17.05,31.33,16.97,31.3,16.89z"></path> <path class="st0" d="M32.27,21.9l-0.11-0.22c-0.32-0.64-0.97-0.57-1.2-0.53c0.16,0.31,0.44,0.6,0.8,0.81 c0.17,0.1,0.44,0.14,0.67,0.12L32.7,22c0.09-0.06,0.12-0.13,0.08-0.24c-0.08-0.26-0.35-0.4-0.53-0.46 c0.09,0.18,0.06,0.35,0.06,0.36L32.27,21.9z"></path> <path class="st0" d="M36.94,15.75l0.36,0.11l5.34,2.75l0.44,0.22l-0.13,0.04l0,0l0.27-0.08c-1.73-0.85-3.96-1.97-6.22-3.16 C36.99,15.67,36.97,15.71,36.94,15.75z"></path> <polygon class="st0" points="26.85,33.61 34.12,31.4 34.12,22.24 26.85,24.46 "></polygon> <path class="st0" d="M31.31,4.55c-0.22,0.26-0.46,0.52-0.74,0.79c-0.02,0.09-0.05,0.18-0.09,0.27l0.68-0.19 C31.22,5.1,31.27,4.82,31.31,4.55z"></path> <path class="st0" d="M22.25,46.88c-1.88-0.35-2.99-1.71-3.11-3.84c-0.06-0.97-0.08-2.24,0.33-3.4c0.47-1.33,1.16-2.25,2.05-2.72 c0.06-0.03,0.12-0.06,0.18-0.09c-0.01,0-0.02,0-0.03,0c-0.04,0-0.07,0-0.11,0c-0.4,0-0.74,0.1-1.01,0.28 c-0.78,0.55-2.11,2.24-2.09,5.07c0.01,1.77,0.56,4.78,4.14,5.09c1.72,0.14,3.02-0.15,3.5-0.78c0.06-0.08,0.1-0.16,0.13-0.25 C25.26,47.08,23.51,47.12,22.25,46.88z"></path> <polygon class="st0" points="41.67,7.08 39.58,3.9 35.04,5.04 37.17,8.21 "></polygon> <polygon class="st0" points="36.78,8.26 34.71,5.18 33.1,5.57 32.43,5.75 34.48,8.86 "></polygon> <path class="st0" d="M37.81,12.86l0.24-1.23l0.02-0.04c-0.11-1.66-0.94-2.43-1.11-2.68l-0.44,0.14c0.4,0.52,1.33,1.98,1.22,3.94 l3.61-5.15l-0.12,0.03"></path> <polygon class="st0" points="34.47,31.28 34.66,31.24 35.96,30.84 36.94,30.51 36.94,21.39 34.47,22.14 "></polygon> <path class="st0" d="M45.3,35.25l2.98,2.46c0.09-0.21,0.16-0.43,0.19-0.64c0.01-0.05,0.01-0.09,0.02-0.14l-2.28-1.83 C45.93,35.11,45.62,35.16,45.3,35.25z"></path> <path class="st0" d="M44.72,35.45c-0.16,0.07-0.32,0.14-0.48,0.23l3.46,2.95c0.19-0.22,0.34-0.45,0.47-0.68l-3.16-2.6 C44.91,35.37,44.82,35.41,44.72,35.45z"></path> <path class="st0" d="M47.33,35.29c-0.21-0.09-0.44-0.14-0.68-0.17l1.83,1.47C48.3,36.02,47.86,35.52,47.33,35.29z"></path> <path class="st0" d="M43.36,36.24l3.61,3.1c0.21-0.17,0.39-0.34,0.56-0.52L44,35.81C43.79,35.94,43.57,36.08,43.36,36.24z"></path> <path class="st0" d="M47.52,10.79c-0.9-0.12-1.45,0.51-1.61,1.21c0.22,0.03,0.43,0.1,0.62,0.22c0.14-0.22,0.42-0.39,0.43-0.4 l0.02-0.01l0,0c0.32-0.23,0.76-0.25,1.07-0.04l0.16,0.1l-0.18,0.04c-0.06,0.01-0.11,0.02-0.17,0.04c-0.2,0.04-0.39,0.08-0.55,0.17 c-0.14,0.07-0.26,0.16-0.4,0.31c-0.02,0.02-0.04,0.05-0.06,0.07c0.24,0.26,0.4,0.59,0.46,0.94c0.46-0.37,1.15-0.58,1.81-0.54 l0.3,0.02l-0.21,0.11l0.01,0.05l-0.08,0.01c-0.38,0.07-0.87,0.18-1.3,0.45l-0.15,0.09c-0.14,0.11-0.26,0.24-0.34,0.36 c-0.02,0.02-0.03,0.05-0.05,0.07c-0.03,0.13-0.06,0.25-0.12,0.36c-0.01,0.02-0.02,0.04-0.03,0.06c-0.08,0.5,0.15,0.99,0.57,1.2 c0.2,0.11,0.4,0.13,0.57,0.06c0.16-0.06,0.28-0.2,0.36-0.39c-0.15-0.06-0.25-0.18-0.26-0.34l0-0.04l0.1-0.08l0.06,0.05 c0.15,0.2,0.44,0.19,0.63,0.06l0.06-0.04l0.07,0.1l-0.01,0.05c-0.07,0.17-0.24,0.27-0.44,0.27c-0.05,0.27-0.19,0.49-0.41,0.62 c-0.25,0.15-0.57,0.15-0.88,0.01c-0.45-0.19-0.77-0.64-0.84-1.16c-0.19,0.08-0.4,0.08-0.58,0.01c-0.29-0.13-0.49-0.42-0.6-0.87 l-0.19-0.75l0.34,0.69c0.12,0.24,0.29,0.54,0.57,0.63c0.25,0.06,0.4-0.08,0.49-0.21c0.03-0.12,0.07-0.24,0.12-0.35 c0.01-0.1,0.01-0.2,0-0.29c-0.04-0.41-0.25-0.77-0.56-0.98c-0.27-0.17-0.58-0.21-0.89-0.11c-0.68,0.3-0.76,1.34-0.64,1.96 c0.14,0.81,0.75,1.5,1.51,1.7l-0.03,0.15c-0.28-0.03-0.56-0.11-0.81-0.24c-0.11,0.28-0.11,0.57,0,0.84 c0.21,0.49,0.78,0.86,1.59,1.04c0.87,0.2,1.3-0.15,1.5-0.45c-0.19,0.02-0.37,0.02-0.55-0.01c-0.55-0.09-1.25-0.45-1.41-1.15 l-0.02-0.07l0.18-0.06l0.03,0.07c0.18,0.51,0.76,0.79,1.26,0.83c0.58,0.04,1.08-0.17,1.47-0.61c0.7-0.79,0.89-2.14,0.72-3.07 C49.96,12.11,48.81,10.93,47.52,10.79z"></path> <path class="st0" d="M43.5,35.09c-2.8,1.31-4.8,6.01-4.94,6.7c-0.16,0.78-0.09,1.55,0.17,2.1c-0.04-0.41-0.06-1,0.08-1.51 c0.23-1.51,1.04-3.09,2.34-4.54c1.14-1.37,2.23-2.23,3.43-2.7c1.02-0.41,2.09-0.43,2.86-0.06c0.35,0.17,0.63,0.41,0.85,0.72 c-0.1-0.23-0.24-0.45-0.42-0.67c-0.41-0.51-1-0.76-1.77-0.76c-0.13,0-0.27,0.01-0.42,0.02C44.57,34.51,43.51,35.09,43.5,35.09z"></path> <path class="st0" d="M24.73,33.77c0.09,0.81,0.57,2.43,2.91,2.89c0.85,0.17,1.59,0.2,2.25,0.22c1.31,0.05,2.44,0.1,3.72,1.15 c0.14-0.66,0.55-1.71,1.72-2.35c-0.9-0.59-1.99-1.04-3.18-1.31c-0.7-0.17-1.48-0.25-2.15-0.31l0.01-0.16 c0.68,0.01,1.46,0.04,2.2,0.16c0.48,0.08,0.96,0.18,1.41,0.32c0.51-0.68,0.65-1.48,0.66-2.07l-7.78,2.38L24.73,33.77z"></path> <path class="st0" d="M35.74,40.56c0.04,0.72,0.18,1.14,0.46,1.37c0.2,0.16,0.48,0.22,0.85,0.19c-0.06-0.29-0.08-0.6-0.05-0.89 c0.01-0.17,0.05-0.37,0.08-0.54l0.01-0.06l0.16,0.02l-0.01,0.14c-0.01,0.09-0.02,0.17-0.02,0.25c-0.04,0.8,0.26,1.56,0.79,1.97 c-0.04-0.42-0.01-0.87,0.08-1.31c0.21-1.01,2.39-5.72,5.19-7.03c0.13-0.07,1.3-0.7,2.57-0.79c-0.49-0.28-1.02-0.47-1.56-0.55 c-0.96-0.12-1.86,0.06-2.65,0.54c-0.45,0.3-1.11,0.87-1.67,1.91c-0.9,1.7-0.95,2.81-0.95,2.82c0,0.04-0.02,0.21-0.11,0.28 l-0.04,0.03l-0.06-0.02c-0.05-0.02-0.06-0.08-0.06-0.13c-0.02-0.04-0.01-0.11,0-0.2c0.01-0.05,0.02-0.12,0.04-0.21 c0.02-0.13,0.04-0.26,0.06-0.38c-0.08,0.07-0.15,0.18-0.2,0.31c-0.03,0.13-0.09,0.39-0.06,0.62c0.01,0.04,0.03,0.15-0.01,0.21 l-0.02,0.03l0.01,0.5l-0.17-0.58c-0.05-0.17-0.08-0.35-0.09-0.52c-0.1,0.05-0.27,0.18-0.35,0.41c-0.05,0.16-0.08,0.24-0.13,0.27 l-0.14,0.54l0-0.64c0-0.05,0.01-0.12,0.02-0.17c0.03-0.22,0.17-0.75,0.65-0.93c0.04-0.13,0.1-0.25,0.17-0.35 c-0.24-0.22-0.7-0.47-1.33-0.09C36.18,38.21,35.68,39.58,35.74,40.56z"></path> <polygon class="st0" points="37.29,30.44 43.45,28.56 43.45,19.41 37.29,21.28 "></polygon> <path class="st0" d="M34.09,38.47c0.32,0.31,0.63,0.68,0.96,1.11l0.03,0.04l0,0c0.06,0.08,0.14,0.19,0.21,0.3 c0.14-0.98,0.7-2.15,1.69-2.74c-0.32-0.41-0.7-0.8-1.14-1.14C34.41,36.67,34.14,37.92,34.09,38.47z"></path> <path class="st0" d="M41.77,37.8l3.22,2.82l0.11-0.07c0.21-0.13,0.45-0.27,0.69-0.42l-3.44-2.99 C42.16,37.34,41.96,37.56,41.77,37.8z"></path> <path class="st0" d="M42.54,36.96l3.48,3.03c0.12-0.07,0.24-0.15,0.37-0.23c0.13-0.08,0.25-0.17,0.38-0.26l-3.61-3.1 C42.96,36.56,42.76,36.74,42.54,36.96z"></path> <path class="st0" d="M39.19,42.48c-0.03,0.13-0.05,0.26-0.07,0.39c-0.01,0.17-0.02,0.34-0.02,0.5l1.68,1.35 c0.23-0.06,0.45-0.17,0.65-0.31l-2.23-2C39.2,42.43,39.2,42.45,39.19,42.48z"></path> <path class="st0" d="M39.77,44.74c0.14,0.03,0.29,0.05,0.45,0.05c0.08,0,0.16,0,0.24-0.01l-1.32-1.06 C39.21,44.25,39.42,44.59,39.77,44.74z"></path> <path class="st0" d="M39.28,42.13l2.35,2.11c0.15-0.13,0.29-0.29,0.42-0.47l-2.53-2.4C39.44,41.62,39.35,41.87,39.28,42.13z"></path> <path class="st0" d="M26.04,39.32c-0.12,0.35-0.49,1.64,0.29,2.29c1.34-0.2,3.2-0.82,4.6-2.6c-1.21-0.09-2.23-0.9-2.5-1.13 C28.03,38.45,27.31,39.12,26.04,39.32z"></path> <path class="st0" d="M41.6,38.01c-0.03,0.04-0.06,0.08-0.09,0.12c-0.13,0.16-0.26,0.32-0.39,0.49l2.96,2.57 c0.21-0.14,0.45-0.29,0.68-0.43L41.61,38L41.6,38.01z"></path> <path class="st0" d="M39.64,41.11l2.57,2.45c0.11-0.17,0.22-0.36,0.34-0.59l-2.63-2.46C39.82,40.7,39.72,40.9,39.64,41.11z"></path> <path class="st0" d="M25.45,39.38c-0.39,0.01-0.81-0.02-1.23-0.09c-0.18,0.06-0.86,0.35-0.78,1.22c0.09,0.98,1.16,1.16,1.23,1.18 c0.02,0,0.4,0.04,0.99,0C25.12,40.92,25.3,39.89,25.45,39.38z"></path> <path class="st0" d="M40.55,39.42l2.65,2.46c0.17-0.18,0.38-0.35,0.67-0.55l-2.9-2.51C40.82,39.01,40.68,39.21,40.55,39.42z"></path> <path class="st0" d="M22.79,43.11c-0.52,0.05-1.04,0.21-1.55,0.47l-0.06,0.03l-0.1-0.17l0.09-0.08c0.16-0.21,0.37-0.37,0.62-0.5 c-0.28-0.15-0.5-0.36-0.63-0.61l-0.02-0.04l0.08-0.11l0.05,0.01c0.12,0.02,0.24,0.05,0.37,0.1c0.18,0.05,0.35,0.13,0.51,0.21 c0.13,0.06,0.26,0.12,0.4,0.17c0.06,0.02,0.13,0.03,0.21,0.04c0.12-0.01,0.26-0.01,0.39,0c0.04-0.01,0.08-0.02,0.13-0.03 c-0.18-0.01-0.36-0.06-0.54-0.13c-0.68-0.29-1.12-1-1.23-1.53c-0.14-0.65,0.1-2.39,1.51-2.85c0.37-0.12,0.72-0.15,1.02-0.07 c-0.08-0.22-0.2-0.41-0.34-0.57l-0.04-0.04c-0.33-0.31-0.7-0.41-1.05-0.41c-0.63,0-1.19,0.34-1.34,0.44 c-0.27,0.22-0.53,0.51-0.75,0.85c-0.8,1.21-1.11,2.79-0.91,4.71c0.06,0.62,0.18,1.12,0.37,1.55c0.7,1.72,2.89,2.09,4.75,1.68 c0.78-0.16,1.4-0.65,1.54-1.2c0.11-0.43-0.06-0.87-0.51-1.26C24.83,42.99,23.5,43.02,22.79,43.11z"></path> <path class="st0" d="M40.04,40.27l2.63,2.45l0.04-0.08c0.06-0.12,0.11-0.22,0.16-0.31c0.04-0.08,0.1-0.17,0.17-0.25l-2.62-2.44 C40.28,39.84,40.16,40.05,40.04,40.27z"></path> <path class="st1" d="M12.67,31.01c-0.54,0.12-0.56,0.86-0.49,1.3c0,0.02,0.03,0.02,0.03,0c0.04-0.23,0.11-0.46,0.21-0.66 c0.18-0.38,0.28-0.55,0.27-0.62C12.69,31.02,12.68,31,12.67,31.01z"></path> <path class="st1" d="M13.49,31.08c-0.53,0.18-0.47,0.91-0.35,1.34c0,0.02,0.03,0.01,0.03,0c0.02-0.24,0.06-0.47,0.14-0.67 c0.16-0.49,0.24-0.5,0.21-0.65C13.51,31.08,13.5,31.07,13.49,31.08z"></path> <path class="st1" d="M14.36,31.26c-0.5,0.24-0.36,0.97-0.19,1.38c0.01,0.01,0.03,0.01,0.03-0.01c-0.01-0.24,0.01-0.47,0.06-0.69 c0.08-0.23,0.14-0.4,0.13-0.67C14.38,31.26,14.37,31.25,14.36,31.26z"></path> <path class="st2" d="M33.93,13.37c0.13-0.04,0.69-0.05,1.12,0.36c0,0,0.1,0.07,0.11,0.1c0.01,0.03-0.02-0.12-0.09-0.24 c-0.07-0.12-0.49-0.83-1.38-0.56c0,0-0.3,0.13-0.26,0.34C33.47,13.58,33.8,13.41,33.93,13.37z"></path> <path class="st1" d="M24.43,18.23c-0.41-0.04-0.75,0.27-0.93,0.61l0.03,0.02c0.15-0.16,0.32-0.31,0.52-0.37 c0.36-0.14,0.6,0.08,0.81,0.33c-0.6-0.01-0.71,0.68-0.42,1.12l0.01-0.01c-0.04-0.11-0.07-0.23-0.07-0.35 c-0.01-0.12,0.01-0.23,0.05-0.33c0.08-0.15,0.22-0.23,0.36-0.32c0.04-0.02,0.07-0.04,0.11-0.06c0.07,0.08,0.13,0.17,0.19,0.24 c0.12,0.13,0.21,0.26,0.35,0.37c0,0,0.03-0.01,0.03-0.01C25.43,18.89,25.03,18.32,24.43,18.23z"></path> <path class="st1" d="M31.62,17.08C31.62,17.08,31.62,17.08,31.62,17.08c-0.09-0.37-0.24-0.7-0.44-0.97 c-0.2-0.27-0.42-0.44-0.66-0.53c-0.26-0.09-0.54-0.05-0.75,0.1c-0.21,0.15-0.36,0.4-0.44,0.73c-0.08,0.32-0.08,0.69-0.01,1.07 c0.06,0.29,0.15,0.56,0.28,0.81c-0.26,0.06-0.43,0.16-0.45,0.17c-0.03,0.02-0.04,0.05-0.03,0.09c0.01,0.03,0.05,0.05,0.08,0.03 c0.81-0.31,1.49-0.17,2.02,0.42c0.05,0.05,0.07,0.07,0.1,0.08c0,0,0,0,0,0c0.01,0,0.02,0,0.02-0.01c0.03,0,0.05-0.02,0.06-0.05 c0.02-0.05-0.01-0.1-0.02-0.11c-0.01-0.01-0.02-0.02-0.03-0.03c0.11-0.12,0.19-0.28,0.25-0.46c0.1-0.31,0.12-0.66,0.07-1.04 C31.66,17.28,31.64,17.18,31.62,17.08z M31.43,18.15c-0.04,0.23-0.11,0.42-0.21,0.57c-0.09-0.09-0.2-0.18-0.3-0.24 c0.08-0.24,0.08-0.54,0.02-0.84c0-0.02-0.02-0.03-0.03-0.04c-0.15-0.04-0.35-0.06-0.46-0.06c0.09-0.14,0.24-0.3,0.31-0.34 c0.02-0.01,0.03-0.04,0.02-0.06c-0.21-0.52-0.56-0.79-0.92-0.69c-0.14,0.04-0.25,0.13-0.33,0.28c0-0.01,0-0.03,0-0.04 c0.04-0.32,0.13-0.56,0.27-0.74c0.07-0.08,0.15-0.15,0.24-0.18c0.08-0.03,0.16-0.04,0.26-0.02c0.24,0.04,0.44,0.22,0.57,0.36 c0.19,0.21,0.34,0.48,0.44,0.79c0.03,0.08,0.05,0.16,0.07,0.25C31.46,17.49,31.48,17.83,31.43,18.15z"></path> <path class="st1" d="M50.75,13.45L50.75,13.45c-0.23-1.32-1.09-2.42-2.25-2.89c-0.75-0.3-1.49-0.28-2.03,0.06l-0.04,0.01 l-0.02,0.01c-0.03,0.02-0.77,0.5-0.83,1.35c-0.7,0.03-1.17,0.68-1.3,1.27c-0.23,0.96,0.06,1.99,0.73,2.61 c0.02,0.02,0.05,0.04,0.07,0.06c-0.19,0.4-0.2,0.86-0.03,1.25c0.11,0.24,0.28,0.46,0.51,0.66c-0.3,0.95-1.1,1.74-1.45,2.04v-0.93 c0-0.1-0.05-0.2-0.13-0.26c-0.07-0.05-0.15-0.07-0.23-0.06c-1.93-0.95-4.21-2.09-6.57-3.34c0.16-0.35,0.29-0.71,0.39-1.07 c0.02-0.01,0.04-0.03,0.05-0.05l4.78-6.57c0.04-0.04,0.06-0.09,0.07-0.15c0.02-0.03,0.03-0.05,0.04-0.08 c0.04-0.1,0.02-0.21-0.03-0.29l-2.47-3.75c-0.08-0.12-0.22-0.17-0.36-0.13l-7.95,2.07c0.05-0.32,0.07-0.58,0.08-0.74 c0.02-0.22,0.03-0.45,0.01-0.67c0-0.09-0.06-0.17-0.15-0.19c-0.09-0.02-0.18,0.01-0.22,0.09c-0.06,0.12-0.14,0.24-0.23,0.38 c-0.19,0.28-0.41,0.5-0.57,0.64c-0.07-0.85-0.85-1.5-2.03-1.7c-0.02-0.06-0.05-0.13-0.06-0.17c-0.18-0.57-0.48-1.26-1.11-1.57 c-0.61-0.28-1.23-0.2-1.74,0.22L25.63,1.6c-0.92,0.61-1.1,2.15-1.13,2.76c-0.22-0.08-0.44-0.1-0.65-0.07 c-0.49,0.06-0.88,0.39-1.09,0.59c-0.38-0.62-0.78-1.13-1.24-1.55c-0.72-0.63-1.59-0.97-2.32-0.91c-0.51,0.04-0.93,0.27-1.27,0.68 c-0.53,0.68-0.75,1.59-0.68,2.77C15.99,6.7,15,8.22,15.78,9.64c0.25,0.38,0.6,0.67,1.05,0.88c-0.27,0.02-0.63,0.04-0.98,0.04 c-0.2-0.02-0.39-0.03-0.56-0.06c-0.07-0.01-0.14,0.03-0.17,0.09c-0.03,0.07-0.01,0.14,0.05,0.18c0.76,0.6,1.49,1,2.22,1.19 c-0.35,0.62-0.77,1.21-1.36,1.45c-0.11,0.03-0.18,0.13-0.17,0.24c0.01,0.06,0.04,0.11,0.08,0.14c0.05,0.03,0.1,0.05,0.16,0.04 l0.04-0.01c0.18,0,0.69-0.08,1.08-0.16l-3.19,3.55c-0.09,0.1-0.11,0.25-0.04,0.37l0.06,0.11C14.01,17.76,14,17.8,14,17.85v9.93 c0,0.12,0.07,0.23,0.17,0.29l0.11,0.06c-0.06,0.08-0.12,0.16-0.18,0.24c-1.22-0.07-1.44,0.85-1.48,1.1 c-3.21,1.1-2.51,4.15-2.5,4.19l0.01,0.02c0.15,0.77,0.65,1.35,1.35,1.55c0.36,0.57,0.92,0.76,1.46,0.49 c0.42,0.57,1.04,0.73,1.6,0.4c0.05,0.03,0.1,0.06,0.15,0.08c0.76,0.32,1.76-0.02,2.05-0.7c0.41-0.6,0.58-1.42,0.64-1.84 c0.43-1.02-0.32-2.48-1-3.1c-0.05-0.05-0.1-0.09-0.15-0.13c0.19-0.33,0.17-0.7-0.08-1.06c0.04-0.05,0.08-0.1,0.14-0.17l7.85,4.09 l0,0.05c0,0.03-0.16,3.18,3.37,3.88c0.27,0.05,0.54,0.1,0.82,0.13c-0.27,0.53-1.12,1.78-3.27,1.69l-0.11-0.26 c-0.01-0.01-0.16-0.36-0.54-0.58c-0.36-1.12-1.02-1.45-1.52-1.52c-0.12-0.06-0.25-0.12-0.4-0.16l-0.03-0.01 c-0.05-0.02-1.28-0.44-2.23,0.23c-0.86,0.6-2.31,2.44-2.29,5.47c0.01,1.56,0.38,2.83,1.11,3.79c-1.45,0.19-3.73,0.61-3.73,1.32 c0,1.06,5.11,1.69,10.05,1.69s10.05-0.63,10.05-1.69c0-0.98-4.37-1.58-8.73-1.67c0.09-0.17,0.15-0.36,0.2-0.56 c0.09-0.62-0.22-1.3-0.79-1.74c-0.58-0.44-1.32-0.68-2.16-0.71c0.04-0.05,0.07-0.1,0.08-0.14c0.13-0.05,0.26-0.12,0.39-0.19 l0.38-0.24c0.09,0,0.2,0.01,0.33,0.01c1.47,0,5.08-0.42,6.95-4.29c0.49,0.19,0.95,0.49,1.42,0.92l0,0.09l0.09,0 c0.32,0.31,0.64,0.68,0.98,1.12l0,0.01l0.67,0.97c0.04,0.44,0.16,1.06,0.62,1.43c0.31,0.25,0.73,0.34,1.25,0.29 c0.02,0,0.04,0,0.06-0.01c0.13,0.31,0.32,0.57,0.55,0.79c0.1,0.09,0.21,0.19,0.37,0.27l0,0c0.1,0.34,0.24,0.63,0.44,0.87 c0.39,0.48,0.96,0.75,1.64,0.76c0.11,0,0.22,0,0.33-0.02c1.49-0.16,2.18-1.56,2.61-2.41c0.05-0.11,0.1-0.2,0.15-0.29 c0.28-0.52,1.03-0.97,2.06-1.6c0.39-0.23,0.82-0.5,1.3-0.8c1.29-0.83,2.13-1.93,2.31-3.02c0.13-0.82-0.1-1.6-0.69-2.33 c-0.28-0.34-0.62-0.6-1.03-0.76l0,0l-0.06-0.06c-1.25-1.07-2.81-1.49-4.28-1.15c-1.49,0.34-2.72,1.42-3.39,2.96 c-0.23,0.51-0.41,1.04-0.55,1.59c-0.21-0.22-0.66-0.56-1.28-0.49c-0.18-0.23-0.4-0.46-0.68-0.72c-0.79-0.71-1.75-1.26-2.85-1.65 c0.65-0.96,0.7-2.07,0.66-2.69l9.04-2.75c0.14-0.04,0.23-0.17,0.23-0.31v-5.93c1.63-1.02,3.17-3.69,3.52-4.32 c1.01-0.06,1.36-0.84,1.44-1.07c0.28-0.11,0.53-0.28,0.73-0.49C50.6,16.14,50.95,14.82,50.75,13.45z M43.23,18.79l-0.27,0.08l0,0 l-0.55,0.16l-5.68-2.91l0.21-0.37l0,0c0.02-0.04,0.04-0.08,0.06-0.12C39.27,16.83,41.5,17.94,43.23,18.79z M32.25,21.3 c0.19,0.06,0.45,0.19,0.53,0.46c0.03,0.1,0.01,0.18-0.08,0.24l-0.27,0.08c-0.23,0.03-0.5-0.02-0.67-0.12 c-0.36-0.2-0.64-0.49-0.8-0.81c0.24-0.05,0.88-0.11,1.2,0.53l0.11,0.22l0.04-0.24C32.31,21.65,32.34,21.48,32.25,21.3z M34.12,22.24v9.16l-7.27,2.21v-9.16L34.12,22.24z M33.44,21.77c0.24-0.42,0.32-0.91,0.34-1.15c0.23-0.1,0.41-0.24,0.54-0.41 c0.14-0.19,0.22-0.43,0.24-0.69l-0.02-0.07l-0.13-0.02l-0.02,0.06c-0.05,0.13-0.12,0.29-0.21,0.42c-0.27,0.38-0.79,0.58-1.59,0.62 c-0.13,0-0.27,0-0.4-0.01c-0.55-0.07-1.07-0.27-1.49-0.58c0.08,0,0.16,0,0.24,0l0.06,0l0.05-0.15l-0.07-0.03 c-0.22-0.08-0.47-0.12-0.7-0.11c-0.11,0.01-0.25,0.03-0.32,0.04c-0.16,0.04-0.31,0.13-0.39,0.26c-0.01,0.01-0.02,0.02-0.03,0.04 c-0.03,0.05-0.05,0.1-0.06,0.14l-0.01,0.05l0.02,0.02c0.02,0.03,0.05,0.07,0.14,0.06c0.09-0.01,0.27-0.09,0.39-0.16 c0.01,0,0.02-0.01,0.02-0.01c0.13,0.45,0.59,1.79,1.56,2.24l-2.28,0.69c-0.93-0.17-1.76-0.51-2.48-1 c-0.15-0.11-0.31-0.23-0.46-0.34c-0.21-0.18-0.41-0.37-0.6-0.57l-0.05-0.05l-0.15,0.12l0,0c-0.05,0.01-0.1,0.02-0.16,0.03 l-0.03-0.02l-0.03,0.01c-0.44,0.08-0.85,0.04-1.2-0.11c-0.55-0.23-1.01-0.71-1.26-1.32c-0.24-0.58-0.24-1.22-0.02-1.73 c0.19-0.39,0.49-0.67,0.86-0.78c0.35-0.1,0.73-0.05,1.07,0.16c0.36,0.19,0.62,0.46,0.9,0.81c0.3,0.34,0.65,0.63,1.03,0.85 c0.08,0.05,0.18,0.03,0.24-0.05c0.06-0.08,0.04-0.18-0.02-0.23c-0.42-0.5-0.17-1.53-0.01-2.22c0.02-0.07,0.03-0.14,0.05-0.2 c0.23-0.71,0.18-1.36-0.13-1.93l-0.02-0.03l-0.14-0.03c-0.06-0.01-0.12-0.03-0.18-0.04l-0.06-0.02c-0.51-0.13-0.93-0.31-1.25-0.47 c0.37,0.09,0.77,0.18,1.22,0.25l0.2,0.03l0,0c0.22,0.03,0.39,0.05,0.51,0.06c0.52,0.04,0.98,0.05,1.43,0.03 c0.17-0.01,0.33-0.02,0.5-0.03c-0.03,0.03-0.05,0.05-0.07,0.08c-0.42,0.53-0.33,0.99-0.32,1l0.04,0.2l0.1-0.18 c0.58-1,1.3-0.75,1.33-0.74c0.13,0.05,0.24,0.07,0.32,0.03c0.05-0.03,0.09-0.07,0.11-0.14c0.04-0.14-0.04-0.26-0.09-0.3 c-0.06-0.07-0.15-0.13-0.26-0.18c2.02-0.53,3.44-1.84,3.92-3.63c0.99,0.23,1.77,0.86,2.15,1.74c0.08,0.21,0.15,0.45,0.2,0.69 c0.02,0.13,0.04,0.23,0.05,0.33c0,0.03,0.01,0.05,0.03,0.07c0.01,0.08,0.02,0.15,0.03,0.22c-0.02,0.27-0.03,0.54-0.05,0.81 c-0.01,0.14-0.01,0.29-0.02,0.43l-0.05,1.28c0,0.23,0.02,0.47,0.16,0.73c0.39,0.48,0.72,0.94,0.75,1.57 c0.1,1.14-0.53,2.08-1.08,2.67L33.44,21.77z M37.74,13c0.1-1.96-0.83-3.42-1.22-3.94l0.44-0.14c0.17,0.25,1,1.02,1.11,2.68 l2.4-3.65l0.79-0.1l-0.02,0.03l0.12-0.03L37.74,13z M39.58,3.9l2.09,3.18l-4.5,1.13l-2.13-3.17L39.58,3.9z M33.1,5.57l1.61-0.39 l2.07,3.08l-2.29,0.59l-2.05-3.11L33.1,5.57z M30.56,5.34c0.28-0.26,0.52-0.52,0.74-0.79c-0.04,0.26-0.09,0.54-0.15,0.87 l-0.68,0.19C30.51,5.52,30.54,5.43,30.56,5.34z M32.07,5.85l2.1,3.18l-8.74,2.39l-2.09-3.18L32.07,5.85z M25.95,1.87 c0.49-0.18,0.87-0.26,1.22-0.07c0.5,0.28,0.66,0.89,0.79,1.43l0.01,0.03C28,3.39,28.1,3.63,28.28,3.68 c0.05,0.02,0.14,0.04,0.21,0.06c0.04,0.01,0.07,0.02,0.1,0.03c0.71,0.18,1.17,0.44,1.38,0.8c0.18,0.3,0.2,0.68,0.08,1.17L28.67,6.1 c0.3-0.32,0.73-0.86,0.63-1.25c-0.03-0.12-0.12-0.27-0.39-0.33c-0.84-0.21-2.19,1.35-2.93,2.32l-0.16,0.04 c0.04-0.23,0.05-0.48,0.03-0.72c0-0.02-0.01-0.05-0.01-0.07c0.01-0.02,0.03-0.03,0.04-0.05c0.05-0.05,0.09-0.11,0.12-0.16 c0.06-0.09,0.11-0.15,0.14-0.21c0.04-0.07,0.09-0.18,0.14-0.3c0.03-0.07,0.06-0.14,0.08-0.19l0.03-0.04 c0.03-0.05,0.06-0.1,0.09-0.15l0.03-0.05l-0.1-0.13l-0.06,0.03c-0.16,0.08-0.31,0.19-0.45,0.32c-0.08,0.07-0.19,0.16-0.28,0.25 c-0.1-0.2-0.22-0.38-0.36-0.54l0.22-0.28c0.12-0.16,0.24-0.3,0.4-0.42l0.05-0.06L25.86,4l-0.06,0.03c-0.19,0.09-0.38,0.2-0.54,0.35 c-0.03,0.02-0.07,0.05-0.09,0.08c-0.06,0.04-0.13,0.11-0.19,0.17c-0.03-0.02-0.06-0.05-0.09-0.07C25.02,2.85,25.54,2.15,25.95,1.87 z M23.99,4.64c0.34,0.01,0.65,0.19,0.87,0.5c0.24,0.32,0.34,0.72,0.43,1.1c0.05,0.22,0.08,0.46,0.09,0.75l-1.43,0.39 c-0.04-0.08-0.08-0.15-0.13-0.21c-0.09-0.25-0.19-0.51-0.29-0.77c-0.19-0.44-0.39-0.86-0.59-1.23C23.21,4.83,23.6,4.63,23.99,4.64z M16.4,9.2c-0.18-0.37-0.18-0.81,0.01-1.3c0.34-0.83,1.09-1.4,1.5-1.67l0.04-0.03l-0.01-0.05c-0.17-1.17-0.02-2.08,0.43-2.71 c0.53-0.72,1.53-0.6,2.28-0.15c1.05,0.62,1.89,1.65,2.61,3.23c-0.57-0.53-1.35-0.9-2.24-1.07c-0.36-0.07-0.85-0.11-1.2-0.12 l-0.02,0.16c0.17,0.03,0.75,0.13,1.14,0.26c0.52,0.17,1.74,0.67,2.25,1.75c-0.68-0.34-1.35-0.53-2-0.57l-0.64-0.04l0.61,0.19 c0.45,0.15,0.9,0.38,1.34,0.7c-0.01,0.01-0.02,0.02-0.03,0.03l-0.5,0.55c-0.58-0.18-1.7-0.46-3.06-0.38 c-0.61,0.03-1.08,0.25-1.21,0.57c-0.07,0.16-0.04,0.33,0.08,0.48c0.33,0.39,1.4,0.64,3.42,0.2l-0.98,1.09 c-1,0.17-1.98-0.02-2.64-0.21C17.02,9.92,16.6,9.61,16.4,9.2z M16.98,13.31c0.41-0.41,0.69-0.96,0.9-1.42l0.01-0.02 c0.01-0.05-0.01-0.11-0.04-0.15c-0.03-0.04-0.08-0.07-0.13-0.08c-0.61-0.1-1.23-0.35-1.91-0.79c0.55,0.02,1.14-0.01,1.8-0.08 c0.8,0.16,1.65,0.09,2.23-0.01l-2.17,2.41C17.46,13.23,17.25,13.27,16.98,13.31z M19.54,12.06l2.16,3.25l-1.76,1.93l-2.1-3.3 L19.54,12.06z M17.59,14.23l2.09,3.3l-3.15,3.46l-1.73-3.21l0-0.03l-0.02-0.01l-0.12-0.23L17.59,14.23z M14.65,18.85l1.53,2.84 c0.05,0.09,0.14,0.16,0.25,0.17c0.1,0.01,0.21-0.03,0.28-0.1l1.42-1.55l0.77,0.4v4.02c-1.04,0.32-2.58,1.09-4.19,2.99l-0.06-0.03 V18.85z M16.8,32.09c0.14,0.41,0.32,1.01,0.15,1.5c-0.13,0.24-0.32,0.46-0.61,0.68c-0.06-0.18-0.18-0.32-0.34-0.4 c0.12-0.35,0.12-0.74,0-1.1l-0.2-0.54l0.04,0.57c0.02,0.33-0.07,0.66-0.25,0.9c-0.02,0.02-0.02,0.04-0.02,0.04 c-0.06,0.08-0.12,0.16-0.15,0.19c-0.01,0-0.02,0.01-0.01,0.01c-0.04,0.02-0.06,0.06-0.06,0.1l0.02,0.07l0.06,0 c0.2,0.01,0.36,0.09,0.45,0.21c0.08,0.12,0.09,0.27,0.03,0.45c-0.01,0.02-0.01,0.04-0.02,0.07c-0.03,0.07-0.05,0.13,0,0.18 l0.05,0.04l0.05-0.02c0.22-0.1,0.36-0.29,0.38-0.51c0.07-0.03,0.13-0.06,0.2-0.09l0.07,0.34l-0.03,0.4 c-0.04,0.13-0.1,0.23-0.17,0.32c-0.25,0.31-0.68,0.37-1,0.37c0,0-0.01,0-0.01,0c-0.77,0.02-1.15-0.78-1.18-1.52 c0-0.09-0.04-0.18-0.11-0.25c-0.06-0.05-0.13-0.08-0.21-0.08c-0.02,0-0.03,0-0.05,0c-0.1,0.02-0.18,0.07-0.23,0.15 c-0.11,0.2,0,0.51,0.08,0.74c0.02,0.06,0.04,0.11,0.05,0.16c0.1,0.25,0.23,0.48,0.38,0.66c-0.91-0.11-1.21-0.68-1.44-1.65 c-0.01-0.05-0.05-0.09-0.1-0.08c-0.05,0-0.09,0.04-0.09,0.1c-0.01,0.27,0.03,0.55,0.1,0.85c0.02,0.08,0.04,0.16,0.07,0.24 c-0.11-0.06-0.23-0.12-0.34-0.18l-0.15-0.08c-0.5-0.26-0.66-0.92-0.74-1.38c0-0.05-0.05-0.1-0.1-0.1c-0.06,0-0.1,0.03-0.11,0.08 c-0.05,0.24-0.07,0.49-0.04,0.8c0.01,0.09,0.02,0.18,0.04,0.27c-0.38-0.3-0.88-1.03-0.47-2.61c0.63-2.46,3.08-2.6,3.11-2.6l0-0.16 c-0.01,0-0.32,0-0.77,0.1c0.02-0.14,0.07-0.34,0.23-0.49c0.16-0.15,0.41-0.22,0.72-0.2c0.71,0.04,1.61,0.39,1.88,0.91 c0.1,0.19,0.1,0.38,0,0.58c-0.28-0.2-0.58-0.37-0.9-0.51c-0.05-0.02-0.1-0.01-0.13,0.04c-0.03,0.04-0.02,0.1,0.02,0.13 C15.93,30.58,16.5,31.28,16.8,32.09z M15.9,28.98c0,0-0.5-0.52-1.27-0.59c0,0,1.8-3.2,5.91-3.64c0,0,0.45,0.75,0.14,1.56 C20.69,26.31,18.17,26.1,15.9,28.98z M18.89,29.79l-2.12-1.1c0.48-0.49,1.22-1.12,2.12-1.54V29.79z M21.71,31.26l-2.47-1.29V27 c0.59-0.23,1.18-0.33,1.76-0.31l0.06,0l0.02-0.05c0.03-0.07,0.6-1.68-0.46-2.23L20.6,24.4c-0.02,0-0.53-0.07-1.35,0.13v-3.6 l2.47,1.23V31.26z M19.78,11.79l2.91-3.24l2.19,3.27l-2.94,3.23L19.78,11.79z M22.07,31.45v-9.19l4.13,2.16v9.19L22.07,31.45z M22.77,40.92c0.1,0.54,0.47,0.89,0.81,1.1c-0.21,0.03-0.42,0.01-0.62-0.07c-0.48-0.2-0.81-0.72-0.9-1.13 c-0.1-0.49,0.08-1.85,1.13-2.19c0.18-0.06,0.35-0.09,0.5-0.09c0.17,0,0.32,0.04,0.45,0.11c-0.49,0.12-0.8,0.39-0.98,0.6 C22.81,39.7,22.66,40.32,22.77,40.92z M26.11,46.5c-0.48,0.63-1.79,0.92-3.5,0.78c-3.58-0.3-4.13-3.32-4.14-5.09 c-0.02-2.83,1.3-4.52,2.09-5.07c0.27-0.19,0.61-0.28,1.01-0.28c0.03,0,0.07,0,0.11,0c0.01,0,0.02,0,0.03,0 c-0.06,0.03-0.12,0.06-0.18,0.09c-0.89,0.47-1.58,1.39-2.05,2.72c-0.4,1.17-0.39,2.43-0.33,3.4c0.12,2.12,1.23,3.49,3.11,3.84 c1.26,0.24,3.01,0.2,3.98-0.64C26.21,46.33,26.17,46.42,26.11,46.5z M25.77,43.78c0.45,0.39,0.62,0.83,0.51,1.26 c-0.15,0.55-0.77,1.03-1.54,1.2c-1.86,0.41-4.05,0.04-4.75-1.68c-0.19-0.43-0.31-0.93-0.37-1.55c-0.2-1.92,0.11-3.51,0.91-4.71 c0.22-0.34,0.47-0.63,0.75-0.85c0.15-0.1,0.71-0.44,1.34-0.44c0.35,0,0.72,0.1,1.05,0.41l0.04,0.04c0.14,0.16,0.26,0.35,0.34,0.57 c-0.31-0.07-0.65-0.05-1.02,0.07c-1.41,0.46-1.65,2.2-1.51,2.85c0.11,0.53,0.55,1.24,1.23,1.53c0.17,0.07,0.35,0.12,0.54,0.13 c-0.04,0.01-0.08,0.02-0.13,0.03c-0.13-0.01-0.27-0.01-0.39,0c-0.08-0.01-0.15-0.03-0.21-0.04c-0.14-0.05-0.26-0.11-0.4-0.17 c-0.16-0.08-0.34-0.16-0.51-0.21c-0.13-0.05-0.25-0.08-0.37-0.1l-0.05-0.01l-0.08,0.11l0.02,0.04c0.13,0.25,0.35,0.47,0.63,0.61 c-0.25,0.12-0.46,0.29-0.62,0.5l-0.09,0.08l0.1,0.17l0.06-0.03c0.51-0.26,1.03-0.42,1.55-0.47C23.5,43.02,24.83,42.99,25.77,43.78z M24.67,41.68c-0.06-0.01-1.13-0.2-1.23-1.18c-0.08-0.87,0.59-1.16,0.78-1.22c0.43,0.07,0.84,0.11,1.23,0.09 c-0.14,0.51-0.33,1.54,0.21,2.31C25.07,41.72,24.69,41.68,24.67,41.68z M26.33,41.61c-0.78-0.65-0.41-1.94-0.29-2.29 c1.26-0.2,1.99-0.88,2.39-1.44c0.27,0.23,1.29,1.04,2.5,1.13C29.54,40.8,27.67,41.41,26.33,41.61z M40.21,44.79 c-0.16,0-0.31-0.02-0.45-0.05c-0.35-0.14-0.56-0.49-0.64-1.02l1.32,1.06C40.37,44.79,40.29,44.79,40.21,44.79z M40.78,44.72 l-1.68-1.35c0-0.16,0-0.33,0.02-0.5c0.02-0.13,0.04-0.26,0.07-0.39c0.01-0.02,0.01-0.05,0.02-0.07l2.23,2 C41.23,44.55,41.01,44.66,40.78,44.72z M41.63,44.24l-2.35-2.11c0.07-0.26,0.15-0.51,0.25-0.76l2.53,2.4 C41.93,43.95,41.78,44.11,41.63,44.24z M42.21,43.55l-2.57-2.45c0.09-0.2,0.18-0.41,0.28-0.6l2.63,2.46 C42.43,43.19,42.32,43.38,42.21,43.55z M42.86,42.33c-0.05,0.09-0.1,0.19-0.16,0.31l-0.04,0.08l-2.63-2.45 c0.12-0.22,0.24-0.43,0.37-0.63l2.62,2.44C42.96,42.17,42.91,42.25,42.86,42.33z M43.2,41.89l-2.65-2.46 c0.14-0.21,0.28-0.41,0.42-0.6l2.9,2.51C43.58,41.53,43.36,41.71,43.2,41.89z M44.08,41.19l-2.96-2.57 c0.13-0.17,0.26-0.33,0.39-0.49c0.03-0.04,0.06-0.08,0.09-0.12L41.61,38l3.15,2.76C44.53,40.9,44.29,41.05,44.08,41.19z M45.1,40.55l-0.11,0.07l-3.22-2.82c0.19-0.23,0.39-0.45,0.58-0.65l3.44,2.99C45.55,40.28,45.32,40.42,45.1,40.55z M46.39,39.76 c-0.12,0.08-0.25,0.16-0.37,0.23l-3.48-3.03c0.22-0.22,0.42-0.4,0.62-0.56l3.61,3.1C46.64,39.59,46.51,39.68,46.39,39.76z M46.97,39.34l-3.61-3.1c0.21-0.16,0.43-0.3,0.64-0.43l3.53,3.01C47.37,39,47.18,39.17,46.97,39.34z M47.7,38.63l-3.46-2.95 c0.16-0.09,0.32-0.16,0.48-0.23c0.09-0.04,0.19-0.08,0.29-0.11l3.16,2.6C48.05,38.18,47.89,38.4,47.7,38.63z M48.48,37.07 c-0.03,0.21-0.1,0.42-0.19,0.64l-2.98-2.46c0.32-0.09,0.62-0.14,0.92-0.14l2.28,1.83C48.49,36.98,48.49,37.02,48.48,37.07z M46.65,35.12c0.24,0.03,0.47,0.08,0.68,0.17c0.53,0.23,0.97,0.73,1.15,1.3L46.65,35.12z M47.89,35.12 c0.18,0.22,0.32,0.44,0.42,0.67c-0.22-0.31-0.5-0.55-0.85-0.72c-0.78-0.37-1.85-0.35-2.86,0.06c-1.2,0.47-2.29,1.33-3.43,2.7 c-1.31,1.46-2.12,3.03-2.34,4.54c-0.14,0.51-0.12,1.1-0.08,1.51c-0.27-0.55-0.34-1.32-0.17-2.1c0.15-0.69,2.14-5.39,4.94-6.7 c0.01-0.01,1.07-0.59,2.21-0.71c0.14-0.02,0.28-0.02,0.42-0.02C46.89,34.36,47.48,34.62,47.89,35.12z M37.23,37.59 c0.63-0.37,1.09-0.13,1.33,0.09c-0.08,0.1-0.14,0.21-0.17,0.35c-0.49,0.18-0.62,0.71-0.65,0.93c-0.01,0.05-0.02,0.12-0.02,0.17 l0,0.64l0.14-0.54c0.05-0.03,0.08-0.11,0.13-0.27c0.07-0.23,0.25-0.36,0.35-0.41c0.01,0.17,0.04,0.35,0.09,0.52l0.17,0.58 l-0.01-0.5l0.02-0.03c0.03-0.06,0.02-0.17,0.01-0.21c-0.03-0.22,0.02-0.49,0.06-0.62c0.05-0.13,0.12-0.24,0.2-0.31 c-0.02,0.12-0.04,0.24-0.06,0.38c-0.02,0.09-0.03,0.16-0.04,0.21c-0.01,0.09-0.02,0.16,0,0.2c0,0.04,0.01,0.1,0.06,0.13l0.06,0.02 l0.04-0.03c0.09-0.07,0.1-0.24,0.11-0.28c0-0.01,0.05-1.12,0.95-2.82c0.55-1.04,1.21-1.62,1.67-1.91c0.79-0.48,1.68-0.66,2.65-0.54 c0.53,0.08,1.07,0.27,1.56,0.55c-1.27,0.09-2.43,0.71-2.57,0.79c-2.8,1.31-4.98,6.02-5.19,7.03c-0.09,0.44-0.12,0.89-0.08,1.31 c-0.52-0.42-0.83-1.17-0.79-1.97c0.01-0.08,0.01-0.17,0.02-0.25l0.01-0.14l-0.16-0.02l-0.01,0.06c-0.03,0.17-0.07,0.36-0.08,0.54 c-0.03,0.3-0.01,0.6,0.05,0.89c-0.37,0.04-0.65-0.03-0.85-0.19c-0.28-0.23-0.42-0.65-0.46-1.37 C35.68,39.58,36.18,38.21,37.23,37.59z M36.98,37.18c-0.99,0.59-1.55,1.76-1.69,2.74c-0.08-0.11-0.16-0.23-0.21-0.3l0,0l-0.03-0.04 c-0.33-0.43-0.64-0.79-0.96-1.11c0.05-0.55,0.32-1.8,1.75-2.43C36.28,36.38,36.66,36.77,36.98,37.18z M33.62,34.38 c-0.46-0.13-0.93-0.24-1.41-0.32c-0.73-0.12-1.52-0.15-2.2-0.16L30,34.05c0.67,0.06,1.44,0.14,2.15,0.31 c1.19,0.27,2.28,0.73,3.18,1.31c-1.18,0.64-1.58,1.7-1.72,2.35c-1.28-1.05-2.41-1.09-3.72-1.15c-0.66-0.03-1.4-0.05-2.25-0.22 c-2.34-0.46-2.82-2.08-2.91-2.89l1.77,0.92l7.78-2.38C34.27,32.9,34.13,33.7,33.62,34.38z M36.94,30.51l-0.98,0.33l-1.3,0.4 l-0.19,0.04v-9.14l2.47-0.75V30.51z M43.45,28.56l-6.16,1.87v-9.16l6.16-1.87V28.56z M44.1,22.31v-1.88 c1.31-0.94,1.74-2.28,1.74-2.28c0.3,0.24,1.22,0.38,1.22,0.38C46.22,20.74,44.1,22.31,44.1,22.31z M49.47,16.62 c-0.39,0.44-0.89,0.65-1.47,0.61c-0.49-0.04-1.07-0.32-1.26-0.83l-0.03-0.07l-0.18,0.06l0.02,0.07c0.16,0.7,0.86,1.05,1.41,1.15 c0.18,0.03,0.36,0.03,0.55,0.01c-0.2,0.3-0.63,0.64-1.5,0.45c-0.81-0.18-1.38-0.55-1.59-1.04c-0.12-0.27-0.12-0.56,0-0.84 c0.25,0.13,0.53,0.22,0.81,0.24l0.03-0.15c-0.77-0.21-1.38-0.89-1.51-1.7c-0.12-0.62-0.04-1.66,0.64-1.96 c0.31-0.11,0.63-0.07,0.89,0.11c0.32,0.21,0.52,0.57,0.56,0.98c0.01,0.09,0.01,0.19,0,0.29c-0.06,0.11-0.1,0.23-0.12,0.35 c-0.08,0.13-0.24,0.27-0.49,0.21c-0.27-0.09-0.45-0.38-0.57-0.63l-0.34-0.69l0.19,0.75c0.12,0.45,0.32,0.74,0.6,0.87 c0.18,0.08,0.39,0.08,0.58-0.01c0.07,0.53,0.39,0.98,0.84,1.16c0.31,0.14,0.63,0.13,0.88-0.01c0.22-0.13,0.36-0.34,0.41-0.62 c0.2,0,0.37-0.11,0.44-0.27l0.01-0.05l-0.07-0.1l-0.06,0.04c-0.19,0.13-0.48,0.14-0.63-0.06l-0.06-0.05l-0.1,0.08l0,0.04 c0.02,0.15,0.12,0.28,0.26,0.34c-0.08,0.19-0.2,0.33-0.36,0.39c-0.17,0.07-0.37,0.05-0.57-0.06c-0.41-0.21-0.64-0.7-0.57-1.2 c0.01-0.02,0.02-0.04,0.03-0.06c0.05-0.11,0.09-0.23,0.12-0.36c0.01-0.02,0.03-0.05,0.05-0.07c0.09-0.12,0.2-0.24,0.34-0.36 l0.15-0.09c0.42-0.27,0.92-0.38,1.3-0.45l0.08-0.01l-0.01-0.05l0.21-0.11l-0.3-0.02c-0.66-0.04-1.35,0.17-1.81,0.54 c-0.06-0.35-0.22-0.69-0.46-0.94c0.02-0.02,0.04-0.04,0.06-0.07c0.14-0.14,0.26-0.24,0.4-0.31c0.17-0.09,0.36-0.12,0.55-0.17 c0.06-0.01,0.11-0.02,0.17-0.04l0.18-0.04l-0.16-0.1c-0.31-0.2-0.75-0.18-1.07,0.04l0,0l-0.02,0.01c-0.01,0.01-0.3,0.18-0.43,0.4 c-0.19-0.12-0.4-0.19-0.62-0.22c0.16-0.7,0.71-1.34,1.61-1.21c1.29,0.14,2.44,1.33,2.67,2.76C50.36,14.48,50.17,15.83,49.47,16.62z "></path> <path class="st1" d="M35.88,17.89c0,0-0.19-0.06-0.46-0.08c0.02-0.06,0.04-0.12,0.06-0.18c0.08-0.3,0.08-0.65,0-1.02 c-0.02-0.09-0.04-0.18-0.07-0.27c-0.11-0.35-0.27-0.65-0.47-0.89c-0.2-0.24-0.42-0.4-0.65-0.47c-0.26-0.08-0.53-0.03-0.72,0.12 c-0.25,0.19-0.35,0.5-0.39,0.72c-0.06,0.32-0.04,0.68,0.06,1.04c0.05,0.2,0.12,0.38,0.21,0.56c-0.37,0.11-0.67,0.42-0.85,0.66 c-0.01,0.01-0.01,0.03-0.01,0.04c0,0.01,0,0.02,0,0.03c0,0.02,0.02,0.03,0.03,0.04c0.03,0.01,0.05-0.01,0.12-0.07 c0.13-0.12,0.44-0.41,0.83-0.48c0.23-0.04,0.43,0.05,0.53,0.22c0.1,0.18,0.06,0.4-0.09,0.57c0,0-0.22,0.24-0.48,0.36 c-0.01,0.01-0.02,0.02-0.03,0.03c0,0.01,0,0.03,0.01,0.04c0.01,0.02,0.03,0.02,0.06,0.02c0,0,0.01,0,0.01,0v0c0,0,0.01,0,0.01,0 c0.02,0,0.05-0.01,0.08-0.02c0.3-0.09,0.56-0.31,0.67-0.56c0.39-0.3,0.89-0.4,1.5-0.3c0.03,0.01,0.07-0.02,0.08-0.05 C35.93,17.93,35.91,17.9,35.88,17.89z M35.28,17.38c-0.02,0.17-0.05,0.31-0.11,0.43c-0.13,0.01-0.26,0.03-0.38,0.06 c0.03-0.38-0.08-0.76-0.09-0.77c0-0.01,0-0.01-0.01-0.02c-0.07-0.09-0.27-0.11-0.41-0.12l0.27-0.33c0.01-0.01,0.01-0.03,0.01-0.05 c-0.01-0.02-0.21-0.54-0.66-0.68c-0.2-0.06-0.38,0.01-0.51,0.2c0-0.01,0-0.01,0-0.02c0.01-0.31,0.09-0.55,0.22-0.73 c0.06-0.08,0.13-0.14,0.21-0.17c0.08-0.03,0.15-0.04,0.24-0.03c0.23,0.03,0.42,0.18,0.55,0.31c0.19,0.19,0.35,0.44,0.47,0.73 c0.03,0.07,0.06,0.15,0.08,0.22C35.27,16.75,35.31,17.07,35.28,17.38z"></path> </g> <g> <path class="st3" d="M101.8,6.69c0.01-0.02,0.02-0.04,0.03-0.05h-1.07h-2.57h-0.71H94.9h-1.07c0.01,0.02,0.02,0.04,0.03,0.05 c0.36,0.39,1.04,1.61,1.04,5.2v18.3c0,3.59-0.68,4.81-1.04,5.2c-0.01,0.02-0.02,0.04-0.03,0.05h1.07h2.57h0.71h2.57h1.07 c-0.01-0.02-0.02-0.04-0.03-0.05c-0.36-0.39-1.04-1.61-1.04-5.2v-18.3C100.76,8.3,101.44,7.09,101.8,6.69z"></path> <path class="st3" d="M192.92,30.2v-18.3c0-3.59,0.68-4.81,1.04-5.2c0.01-0.02,0.02-0.04,0.03-0.05h-1.07h-2.57h-0.71h-2.57h-1.07 c0.01,0.02,0.02,0.04,0.03,0.05c0.36,0.39,1.04,1.61,1.04,5.2v18.3c0,3.59-0.68,4.81-1.04,5.2c-0.01,0.02-0.02,0.04-0.03,0.05h1.07 h2.57h0.71h2.57h1.07c-0.01-0.02-0.02-0.04-0.03-0.05C193.6,35,192.92,33.79,192.92,30.2z"></path> <path class="st3" d="M175.93,6.69c0.01-0.02,0.02-0.04,0.03-0.05h-2.96h-3.66h-0.29l-7.4,19.75c-0.01,0.01-0.02,0.03-0.03,0.04 c-0.35,0.66-0.67,0.1-0.71,0.01l-7.95-19.8h-3.11h-1.75h-0.81h-0.5h-1.75c0.01,0.02,0.02,0.04,0.03,0.05 c0.36,0.39,1.04,1.61,1.04,5.2v18.3c0,3.59-0.68,4.81-1.04,5.2c-0.01,0.02-0.02,0.04-0.03,0.05h1.75h1.31h1.75 c-0.01-0.02-0.02-0.04-0.03-0.05c-0.36-0.39-1.04-1.61-1.04-5.2v-9.41h0.01c0-4.11,0-8.36,0-8.36s0-0.09,0.02-0.26l9.23,23.29 l0.24-0.04v0.04h2l8.74-23.58c0,0.01,0,0.02,0,0.03v18.3c0,3.59-0.68,4.81-1.04,5.2c-0.01,0.02-0.02,0.04-0.03,0.05h1.93h3.1h2.96 c-0.01-0.02-0.02-0.04-0.03-0.05c-0.36-0.39-1.04-1.61-1.04-5.2v-18.3C174.89,8.3,175.57,7.09,175.93,6.69z"></path> <path class="st3" d="M133.16,14.03c-1.76,4.5-5.12,13.31-6.22,16.19c-0.3,0.51-0.55,0.22-0.66,0.05 c-1.08-2.83-4.47-11.72-6.24-16.25c-1.71-4.36-0.98-6.65-0.62-7.39l0-0.01h-9.35v0.2c0.28,0.52,2.08,3.56,3.16,6.36l8.48,22.25 h5.24l7.24-20.41c1.28-3.6,3.44-7.76,3.68-8.24V6.64l-4.1,0.01C134.13,7.38,134.86,9.68,133.16,14.03z"></path> <path class="st3" d="M75.5,21.12c0.2,0.52,2.44,3.44,2.44,6.16v4.94c0,0,0,0,0,0v0.49h0v0.04c0,0.07-0.05,0.13-0.11,0.17 c-1,0.39-2.09,0.61-3.23,0.61c-2.73,0-5.17-1.23-6.81-3.17c-1.36-2.28-2.14-5.49-2.14-9.32c0-0.53,0.02-1.04,0.04-1.55h0.01 c0-0.05,0-0.09,0-0.14c0.06-1.06,0.19-2.06,0.37-2.99c1.11-3.65,4.5-6.31,8.52-6.31c1.96,0,3.78,0.64,5.25,1.71 c1.67,1.26,2.51,3.14,3.02,3.88h0.36v-7.2c-3.56-1.44-7.24-2.2-10.08-2.2c-8.24,0-14.56,6.48-14.56,14.8 c0,8.76,6.2,14.84,13.96,14.84c4.6,0,9.16-1.72,11.6-2.92v-5.68c0-2.72,0.84-5.64,0.92-6.16v-0.16H75.5V21.12z"></path> </g> <g> <g> <path class="st4" d="M-6.68,249.84l0.07,0.04c-0.04-0.09-0.06-0.19-0.06-0.3v0c-0.13-0.2-0.21-0.42-0.21-0.64l-0.15-0.09 c-0.02-0.04-0.03-0.08-0.05-0.11v-0.04c-0.26-0.28-0.42-0.61-0.5-0.96c-0.37-0.66-0.78-1.24-1.13-1.68 c-0.82-1.35-1.32-2.82-1.36-4.41c-0.05-1.08,0.08-2.2,0.14-3.29c0.05-1.14,0.01-2.28-0.27-3.41c-0.02-0.07-0.04-0.14-0.06-0.21 l0.13,0.08c-0.14-0.4-0.28-0.81-0.56-1.14c-0.01-0.01-0.02-0.03-0.03-0.04l-0.04-0.02c-0.34-0.52-0.82-0.91-1.47-0.98 c0.01-0.05,0.02-0.1,0.03-0.15c0.11,0.02,0.22,0.06,0.31,0.12v-0.34c-0.12-0.09-0.21-0.22-0.23-0.37 c-0.05-0.38-0.12-0.77-0.14-1.15c-0.01-0.17,0-0.34-0.01-0.51c-0.01-0.08-0.09-0.29,0-0.19c-0.04-0.05-0.07-0.1-0.1-0.15 c-0.28-0.02-0.55-0.2-0.66-0.53c-0.06-0.17-0.09-0.34-0.11-0.51c-0.27-0.2-0.59-0.34-0.97-0.4c-0.8-0.09-1.49,0.17-2.07,0.62 c-0.02-0.01-0.03-0.01-0.05-0.02c-0.07-0.02-0.14-0.02-0.21-0.02c-0.16,0.04-0.32,0.07-0.48,0.08c-0.05,0.02-0.11,0.03-0.17,0.04 c-0.05,0.03-0.1,0.05-0.16,0.07v0c0,0-0.01,0-0.01,0.01c-0.13,0.06-0.25,0.13-0.43,0.19c-0.02,0.01-0.04,0.02-0.06,0.03 c-0.46,0.26-0.9,0.61-1.37,1.08c-0.03,0.03-0.08,0.07-0.12,0.11c-0.05,0.04-0.09,0.09-0.13,0.13c-0.09,0.09-0.15,0.17-0.19,0.24 c-0.04,0.05-0.06,0.09-0.11,0.14c-0.02,0.02-0.04,0.04-0.05,0.06c-0.93,1.54-1.53,3.21-1.83,5.13c0,0,0,0.01,0,0.01 c-0.06,0.43-0.09,0.85-0.12,1.27c-0.41-0.19-1.2-0.49-1.97-0.47c-0.64,0-1.26,0.21-1.63,0.78c-0.32,0.5-0.46,1.13-0.36,1.72 c0.17,0.89,0.86,1.56,1.5,2.14c0.87,0.77,1.82,1.45,2.6,2.32c0.23,0.25,0.44,0.51,0.63,0.79c0.06,0.27,0.11,0.53,0.17,0.8 c0.06,0.35,0.16,0.65,0.27,0.97c0.03,0.08,0.05,0.16,0.08,0.24c0,0.01,0,0.01,0.01,0.02c0.78,2.02,1.84,3.66,3.23,5 c-0.18,0.35-0.65,1.41-0.24,2.58c0.38,1.09,1.4,1.94,3.04,2.52c1.21,0.43,2.44,0.64,3.56,0.64c1.66,0,3.06-0.46,3.75-1.33 c0.62-0.77,0.61-1.77-0.02-2.82C-6.37,252.3-6.37,251.03-6.68,249.84z M-21.26,243.83c-0.68-0.97-1.61-1.76-2.44-2.55 c-0.69-0.67-1.5-1.46-1.26-2.49c0.07-0.33,0.21-0.67,0.48-0.89c0.19-0.14,0.41-0.23,0.65-0.28c0.01,0,0.02,0,0.03,0 c0.31-0.06,0.63-0.01,0.94,0.07c0.39,0.09,0.8,0.24,1.11,0.5c0.03,0.01,0.05,0.02,0.06,0.03c-0.04,2.01,0.25,3.97,0.64,5.93 C-21.11,244.04-21.18,243.93-21.26,243.83z M-7.56,255.87c-0.85,1.07-3.54,1.54-6.55,0.48c-1.42-0.51-2.31-1.21-2.62-2.09 c-0.27-0.77-0.04-1.52,0.12-1.88c0.08,0.07,0.17,0.14,0.25,0.21c0.02,0.02,0.04,0.03,0.06,0.04c0.11,0.05,0.28,0.17,0.39,0.28 c0.02,0.02,0.04,0.03,0.06,0.05c0.17,0.1,0.33,0.22,0.49,0.33c0.36,0.25,0.73,0.5,1.14,0.66c1.06,0.45,2.59,1.11,4.12,1.11 c0.8,0,1.61-0.18,2.35-0.66c0.02-0.02,0.05-0.03,0.07-0.06c0.07-0.07,0.13-0.15,0.19-0.22C-7.23,254.65-7.11,255.3-7.56,255.87z M-8.15,253.84c-1.71,1.07-3.81,0.33-5.81-0.53c0,0-0.01,0-0.01-0.01c-0.34-0.13-0.66-0.35-1-0.59c-0.15-0.11-0.31-0.22-0.48-0.32 c-0.15-0.15-0.35-0.28-0.5-0.36c-1.66-1.36-2.9-3.12-3.77-5.38c-0.03-0.08-0.05-0.16-0.08-0.24c-0.1-0.3-0.2-0.57-0.25-0.86 c0-0.01,0-0.01,0-0.02c-0.69-3.16-1.22-6.02-0.82-9.13c0.28-1.81,0.84-3.39,1.71-4.84c0.07-0.08,0.12-0.15,0.16-0.21 c0.04-0.05,0.06-0.09,0.11-0.14c0.03-0.03,0.08-0.07,0.12-0.11c0.05-0.04,0.09-0.09,0.13-0.13c0.43-0.43,0.8-0.72,1.2-0.96 c0.07-0.03,0.14-0.05,0.2-0.08v0.26c-0.33,0.49-0.6,1.02-0.81,1.52c-1.29,3.14-1.11,6.92-0.23,10.15l0.07-0.02 c-0.09-0.41-0.17-0.83-0.23-1.25c-0.12-0.84-0.19-1.68-0.21-2.53c-0.03-2.08,0.23-4.23,1.11-6.13c0.33-0.73,0.78-1.45,1.37-1.99 c1.56-1.47,3.27-1.03,3.71,1.12c0.1,0.5,0.12,1.01,0.1,1.53c-0.11,0-0.22,0-0.34,0.01c-1.26,0.18-2.05,1.33-2.44,2.44 c-0.51,1.43-0.53,2.99-0.36,4.48c0.13,1.11,0.38,2.2,0.7,3.27c0.11,0.36,0.23,0.71,0.35,1.06l0.07-0.02 c-0.12-0.44-0.24-0.89-0.34-1.34c-0.52-2.31-0.82-5.02,0.04-7.27c0.4-1.02,1.29-2.25,2.51-2.01c0.82,0.2,1.17,1.11,1.36,1.87 c0.32,1.39,0.25,2.89,0.12,4.31c-0.13,1.47-0.15,3,0.27,4.44c-0.01,0.05,0,0.1,0.01,0.15l0.04,0.12c0.23,0.73,0.45,1.41,0.94,2.1 c0,0.01,0.01,0.01,0.02,0.02c0.08,0.1,0.18,0.22,0.27,0.35c0.04,0.06,0.08,0.12,0.11,0.18c0.16,0.24,0.41,0.58,0.59,0.84 C-7.36,249.33-6.38,251.87-8.15,253.84z"></path> </g> <g> <path class="st4" d="M20.78,236.45c-0.5-1.59-1.22-2.66-2.03-3.02c-0.17-0.69-0.42-1.35-0.77-1.97c-0.25-0.44-0.58-0.87-1-1.17 v-0.35c-0.01,0-0.01,0-0.02,0c0,0.18,0.01,0.36,0.02,0.54c0.04,0.05,0.09,0.09,0.12,0.14c0.58,0.75,0.85,1.72,0.97,2.66 c-1.12-0.1-1.74,0.32-2.08,0.72c-0.14,0.16-0.25,0.35-0.34,0.56c0.06,0.25,0,0.53-0.17,0.72c-0.06,0.69-0.06,1.39-0.1,2.08 c0.06,0.11,0.09,0.23,0.1,0.35c0.05,0.12,0.08,0.25,0.11,0.37c0.08,0.33,0.17,0.67,0.29,1.02c0.12,0.36,0.21,0.72,0.28,1.06h0.03 c0.1,0.56,0.32,2.05,0.07,3.4c-0.32,1.71,0.3,0.32,0.42-0.56c0.12-0.85,0.4-2.05,0.13-3.13c-0.07-0.32-0.16-0.65-0.27-0.99 c-0.66-1.97-0.67-3.67-0.02-4.44c0.36-0.42,0.94-0.58,1.72-0.45c0.67,0.11,1.39,1.13,1.88,2.67c0.87,2.77,1.07,7.85-1.14,12.03 h0.03c-0.67,1.24-1.52,2.36-2.56,3.28c-0.74,0.67-1.59,1.24-2.54,1.57c-1.36,0.49-3.02,0.32-4.03-0.78 c-1.07-1.11-1.05-2.79-0.19-4.03c0.42-0.61,0.96-1.11,1.57-1.53c-0.04,0.01-0.07,0.03-0.11,0.04c-0.26,0.1-0.53,0.18-0.8,0.26 c-1.02,0.79-1.82,1.99-1.82,3.32c-0.02,1.45,0.95,2.79,2.28,3.33c1.38,0.58,2.85,0.34,4.15-0.3c0.04,0.4-0.07,0.96-0.42,1.44 c-0.47,0.64-1.72,1.56-4.72,0.43c-3.29-1.24-3.03-3.64-2.85-4.41c0.5,0.34,1.06,0.59,1.63,0.78c-0.72-0.35-1.41-0.81-1.91-1.44 c-0.42-0.51-0.68-1.12-0.79-1.76c-0.01,0-0.03,0.01-0.04,0.01c-0.16,0.05-0.47,0.09-0.75,0.14c0.01,0.01,0.02,0.03,0.02,0.04 l0.15-0.05c0.22,0.68,0.6,1.32,1.12,1.81l-0.01,0c-0.01,0.04-0.35,0.97-0.11,2.13c0.21,1.06,0.96,2.51,3.3,3.39 c1.11,0.42,2.02,0.58,2.76,0.58c1.54,0,2.35-0.7,2.75-1.24c0.52-0.71,0.65-1.57,0.49-2.19c0.48-0.3,0.92-0.64,1.32-1.02 c1.17-1.09,2.1-2.39,2.79-3.8h0.04c0.79-1.6,1.21-3.19,1.43-4.47C21.64,241.55,21.49,238.71,20.78,236.45z"></path> </g> <g> <path class="st4" d="M-18.23,247.31c-0.21-0.57-0.28-1.19-0.46-1.76c-0.17-0.51-0.29-1.03-0.52-1.57c0,0-0.07,0-0.07,0 c-0.23,0.83-0.17,1.74,0.13,2.55c0.09,0.23,0.24,0.56,0.34,0.79c0.46,1.02,1.06,2,1.81,2.84l0.05-0.04 c-0.22-0.35-0.41-0.72-0.59-1.09C-17.79,248.47-18.04,247.88-18.23,247.31z"></path> </g> <g> <path class="st4" d="M-16.22,246.68c-0.1-0.33-0.22-0.65-0.34-0.98c-0.1-0.22-0.17-0.44-0.3-0.66c0,0-0.07,0.01-0.07,0.01 c-0.18,0.65-0.13,1.36,0.08,2c0.1,0.26,0.25,0.57,0.36,0.83c0.38,0.87,0.86,1.71,1.42,2.48c0,0,0.06-0.04,0.06-0.04 c-0.42-0.97-0.79-1.95-1.05-2.97C-16.11,247.16-16.17,246.87-16.22,246.68z"></path> </g> <g> <path class="st4" d="M-13.59,249.3c0.09,0.52,0.19,1.12,0.32,1.63c0.02,0.05,0.02,0.1,0.06,0.16l0.05-0.04c0-0.01,0-0.04,0-0.06 c0-0.04,0-0.18,0-0.22c0.01-0.65,0.04-1.45,0.04-2.1c0-0.4,0.06-0.8-0.01-1.2c-0.07-0.41-0.17-0.8-0.38-1.18c0,0-0.07,0-0.07,0 c-0.16,0.4-0.21,0.8-0.23,1.22c-0.02,0.4,0.09,0.8,0.15,1.19L-13.59,249.3z"></path> </g> </g> <g> <g> <path class="st0" d="M8.63,252.13"></path> </g> <g> <path class="st4" d="M8.63,252.13"></path> </g> <g> <polygon class="st4" points="9.13,247.15 14.91,245.32 14.91,233.02 9.13,234.85 "></polygon> </g> <g> <path class="st4" d="M4.15,229.26l1.39-0.44c-1.93-1.82-4.18-2.46-4.21-2.47c-0.08-0.02-0.15-0.08-0.19-0.15 c-0.45,0.18-0.95,0.28-1.42,0.34l4.41,2.71C4.15,229.25,4.15,229.25,4.15,229.26z"></path> </g> <g> <path class="st4" d="M10.5,247.43"></path> </g> <g> <path class="st4" d="M2.51,224.51c0.04,0.01,0.08,0.02,0.12,0.03c1.14-0.07,4.5-0.28,6.03-0.64c0.64-0.15,1.22-0.44,1.61-0.79 c0.04-0.08,0.1-0.15,0.18-0.18c0.18-0.2,0.29-0.42,0.32-0.63c0.05-0.54-0.52-0.92-1.01-1.14c-1.91-0.87-6.23,1.85-7.23,2.51 c0.02,0.24,0.02,0.47,0,0.69C2.53,224.41,2.52,224.46,2.51,224.51z"></path> </g> <g> <path class="st4" d="M-3.88,234.33c-0.01,0.01-0.03,0.01-0.04,0.02c-0.03,0.01-0.07,0.02-0.1,0.02c-0.1,0-0.2-0.04-0.26-0.12 l-1.97-2.39l-1.68,0.87v2.45c0,0.04-0.01,0.07-0.02,0.1l4.08,2.39V234.33z"></path> </g> <g> <path class="st4" d="M-10.19,234.97c0.28,1.13,0.32,2.26,0.27,3.41c-0.06,1.09-0.19,2.21-0.14,3.29c0.04,1.59,0.54,3.07,1.36,4.41 c0.35,0.45,0.77,1.04,1.15,1.71v-11.45l-2.69-1.59C-10.22,234.83-10.2,234.9-10.19,234.97z"></path> </g> <g> <path class="st4" d="M-8.42,232.96l-0.52,0.27c-0.1,0.05-0.21,0.05-0.31,0c-0.1-0.05-0.17-0.14-0.18-0.25 c-0.02-0.09-0.24-1.6,0.46-3.38l-2.9-1.46v4.49c-0.1-0.05-0.21-0.1-0.31-0.12c-0.01,0.05-0.02,0.1-0.03,0.15 c0.65,0.07,1.13,0.46,1.47,0.98l2.33,1.36V232.96z"></path> </g> <g> <path class="st4" d="M-16.56,229.05c0.11-0.01,0.22-0.01,0.34,0.02c0.02,0,0.03,0.01,0.05,0.02c0.58-0.45,1.27-0.71,2.07-0.62 c0.87,0.14,1.44,0.7,1.75,1.42v-1.99l-4.21-2.12V229.05z"></path> </g> <g> <path class="st4" d="M-7.07,248.76c0.02,0.04,0.03,0.08,0.05,0.11l3.21,1.89v-12.22l-3.25-1.92V248.76z"></path> </g> <g> <polygon class="st4" points="-3.04,250.99 3.14,249.04 3.14,236.75 -3.04,238.7 "></polygon> </g> <g> <path class="st4" d="M-7.87,227.71c-0.33,0.05-0.66,0.07-1,0.07c-0.29,0-0.59-0.02-0.9-0.06c-1.04-0.15-1.93-0.81-2.56-1.92 c-0.25-0.43-0.44-0.89-0.59-1.38l-3.14,0.83l7.38,3.72C-8.47,228.55-8.2,228.13-7.87,227.71z"></path> </g> <g> <polyline class="st4" points="8.65,247.3 8.65,235 3.62,236.59 3.62,248.89 "></polyline> </g> <g> <path class="st4" d="M-2.08,226.58c-0.04,0.01-0.09,0-0.13-0.01c-0.15-0.04-0.31-0.07-0.47-0.08c-0.03,0.06-0.08,0.11-0.16,0.15 c-0.62,0.31-1.18,0.73-1.68,1.21c-0.37,0.37-0.7,0.81-0.94,1.28c-0.08,0.14-0.15,0.35-0.21,0.5c0.02-0.1,0.06-0.3,0.09-0.4 c0.04-0.13,0.08-0.27,0.13-0.39c0.34-0.86,0.9-1.6,1.58-2.23c-0.45,0.1-0.93,0.26-1.43,0.43c-0.45,0.15-0.93,0.3-1.42,0.43 c-1.87,1.81-2.07,3.96-2.06,4.9l2.46-1.27c0.14-0.07,0.32-0.04,0.42,0.09l1.65,2c0.47-2.58,2.14-5.7,2.63-6.59 C-1.84,226.6-2,226.58-2.08,226.58z"></path> </g> <g> <path class="st4" d="M-0.83,226.76c-0.03-0.02-0.05-0.04-0.07-0.06c-0.03,0.06-1.41,2.45-2.22,4.86l6.67-2.12L-0.83,226.76z"></path> </g> <g> <path class="st4" d="M-10.7,225.9c-0.07,0.21,0.06,0.46,0.4,0.74c0.13,0.09,0.43,0.27,0.7,0.41c1.48,0.2,2.81-0.24,4.09-0.66 c1.03-0.34,2-0.66,2.93-0.58c-0.23-0.16-1.75-1.16-4.1-1.08C-8.77,224.79-10.5,225.3-10.7,225.9z"></path> </g> <g> <path class="st4" d="M9.56,233.84v-4.26l-0.14-0.05l-0.95,2.94c-0.04,0.13-0.16,0.21-0.29,0.21h0c-0.13,0-0.25-0.09-0.29-0.21 c-0.4-1.26-1.05-2.28-1.8-3.1l-1.82,0.58l0.05,5.57L9.56,233.84z"></path> </g> <g> <path class="st4" d="M12.38,230.06c0.05,0.11,0.02,0.24-0.06,0.33s-0.21,0.12-0.33,0.08l-1.95-0.71v3.93l6.27-1.99V230 c-0.03-0.01-0.06-0.03-0.1-0.04c0.03,0.01,0.07,0.02,0.1,0.03v-3.87l-5.34,1.7C11.92,228.99,12.35,229.98,12.38,230.06z"></path> </g> <g> <path class="st4" d="M2.15,225.47c-0.1,0.15-0.22,0.27-0.36,0.38c0.48,0.16,1.48,0.55,2.59,1.27c0.58,0.38,1.25,0.88,1.88,1.53 c0.1,0.03,0.19,0.11,0.23,0.22c0,0.01,0,0.01,0,0.02c0.63,0.69,1.22,1.53,1.66,2.54l0.78-2.4c0.03-0.08,0.08-0.15,0.16-0.18 c0.08-0.04,0.16-0.04,0.24-0.01l2.13,0.78c-0.7-1.2-2.46-3.65-5.66-4.73c-0.06-0.02-0.11-0.06-0.14-0.1 c-0.66,0.06-1.31,0.11-1.86,0.15c0.07,0.03,0.15,0.07,0.22,0.1c0.92,0.45,1.74,1.11,2.36,1.92c-0.31-0.25-0.63-0.49-0.97-0.68 c-0.5-0.29-1.05-0.5-1.61-0.64C3.26,225.52,2.7,225.44,2.15,225.47z"></path> </g> <g> <path class="st4" d="M8.77,224.37c-0.49,0.11-1.15,0.21-1.87,0.3c1.55,0.69,2.72,1.66,3.57,2.59l5.15-1.64l-5.15-2.04 C10.01,223.94,9.38,224.23,8.77,224.37z"></path> </g> <g> <path class="st4" d="M-11.18,226.23c-0.04-0.17-0.04-0.33,0.02-0.49c0.35-1.01,2.62-1.43,4.45-1.49c2.11-0.07,3.56,0.65,4.15,1.01 c-0.05-0.31-0.13-0.69-0.27-1.11c-0.09-0.02-0.17-0.07-0.24-0.17c-0.26-0.37-0.61-0.69-0.97-0.96c-0.6-0.45-1.3-0.79-2.02-1.03 c-0.11-0.04-0.28-0.08-0.4-0.12c-0.06-0.02-0.24-0.07-0.3-0.08c-0.28-0.05-0.65-0.14-0.93-0.16c-0.41-0.06-0.86-0.08-1.27-0.1 c0.28-0.01,0.57-0.03,0.85-0.04c0.26,0.01,0.61,0,0.86,0.03c0,0,0.43,0.04,0.43,0.04c0.12,0.01,0.31,0.04,0.43,0.06 c0.13,0.02,0.3,0.05,0.43,0.08c0.92,0.2,1.83,0.57,2.61,1.11c-0.49-0.99-1.26-2.1-2.44-3.16c-1.49-1.33-2.75-1.7-3.69-1.7 c-0.29,0-0.55,0.04-0.78,0.09c-1.07,0.25-1.79,0.99-2.04,1.61c-0.55,1.38-0.46,4.04,0.56,5.81 C-11.57,225.76-11.38,226.02-11.18,226.23z"></path> </g> <g> <polygon class="st4" points="-3.04,237.84 3.83,235.66 3.78,230.09 -3.04,232.26 "></polygon> </g> <g> <path class="st4" d="M-0.62,225.89C-0.62,225.89-0.62,225.89-0.62,225.89c0.63-0.48,1.01-1.27,0.93-2.07 c0.08,0.22,0.14,0.47,0.15,0.71c0.02,0.42-0.07,0.85-0.24,1.24c0.41-0.09,0.81-0.23,1.12-0.44c0.37-0.25,0.49-0.71,0.52-1.05 c0.11-1.14-0.49-2.63-1.46-3.64c-1.28-1.31-3.94-0.39-4.46-0.19c1.94,2.34,2.24,4.6,2.28,5.45 C-1.52,225.92-1.1,225.93-0.62,225.89z"></path> </g> <g> <path class="st4" d="M4.52,218.54c-0.3,0.17-0.55,0.4-0.79,0.64c-0.7,0.73-1.27,1.59-1.76,2.47c-0.01,0.01-0.02,0.03-0.03,0.04 c0.24,0.47,0.41,0.97,0.51,1.45c1.32-0.85,5.45-3.36,7.5-2.42c0.36,0.16,0.62,0.34,0.81,0.52c-0.24-1.15-1.16-2.15-1.82-2.74 c-0.4-0.36-0.76-0.79-1.1-1.21c-0.74-0.89-1.44-1.73-2.42-1.82c-1.75-0.16-3.79,3.33-4.43,4.68c-0.02,0.03-0.04,0.06-0.06,0.08 c0.23,0.25,0.45,0.52,0.64,0.81C2.37,220.11,3.43,218.98,4.52,218.54z"></path> </g> </g> <g> <path class="st4" d="M-14.03,228.76l0.54-0.14c0,0,1.79,0.66,1.68,4.11l-0.42,0.03l-0.03-0.45l0.08-0.91l-0.31-0.61l-0.05-0.44 c0,0-0.28-0.39-0.29-0.42c-0.02-0.03-0.15-0.37-0.15-0.37l-0.37-0.33"></path> </g> <g> <path class="st4" d="M15.89,238.53c-0.27,0-0.53-0.18-0.61-0.45c-0.88-2.91,0.53-4.5,1.39-4.93c0.32-0.16,0.7-0.03,0.85,0.29 c0.16,0.31,0.03,0.69-0.28,0.85c-0.08,0.04-1.52,0.86-0.75,3.43c0.1,0.34-0.09,0.69-0.43,0.79 C16.01,238.52,15.95,238.53,15.89,238.53z"></path> </g> <g> <path class="st5" d="M64.91,45.39c-0.1,0-0.21-0.03-0.33-0.09c-0.15-0.06-0.25-0.14-0.31-0.25c-0.03-0.05-0.05-0.1-0.08-0.16 c-0.02-0.06-0.05-0.12-0.09-0.19l-1.68-4.7c-0.01-0.01-0.01-0.02-0.02-0.02c-0.01,0-0.02-0.01-0.02-0.01h-0.79 c-0.01,0-0.02,0.01-0.02,0.02l0.04,0.13c0,0.01,0,0.01,0,0.02l-1.62,4.68c-0.13,0.37-0.37,0.56-0.73,0.58 c-0.03,0-0.05,0.01-0.05,0.03v0.1c0,0.02,0.01,0.03,0.03,0.03h2.02c0.02,0,0.03-0.01,0.03-0.03v-0.1c0-0.02-0.01-0.03-0.03-0.03 h-0.1c-0.27,0-0.49-0.06-0.65-0.19c-0.07-0.06-0.11-0.12-0.11-0.19v-0.04l0.59-1.74c0,0,0-0.01,0.01-0.03 c0.04-0.09,0.11-0.13,0.19-0.13h1.41c0.08,0,0.13,0.04,0.17,0.13c0.01,0.02,0.01,0.03,0.02,0.04l0.6,1.69 c0.01,0.02,0.01,0.04,0.01,0.06c0,0.21-0.18,0.33-0.55,0.37c-0.06,0.01-0.14,0.01-0.24,0.02c-0.1,0.01-0.15,0.02-0.15,0.04v0.1 c0,0.02,0.01,0.03,0.03,0.03h2.43c0.02,0,0.03-0.01,0.03-0.03v-0.09C64.94,45.4,64.93,45.39,64.91,45.39z M62.47,42.64H61.3 c-0.04,0-0.06-0.02-0.06-0.05s0.01-0.06,0.02-0.09l0.55-1.62c0.03-0.07,0.05-0.11,0.06-0.11c0.01,0,0.03,0.04,0.06,0.11l0.59,1.62 c0.01,0.03,0.02,0.05,0.02,0.07C62.54,42.62,62.51,42.64,62.47,42.64z"></path> </g> <g> <path class="st5" d="M73.32,43.09H70.9c-0.03,0-0.04,0.02-0.04,0.07c0,0.05,0.01,0.07,0.04,0.07c0.38,0,0.63,0.06,0.77,0.17 c0.14,0.11,0.21,0.3,0.21,0.54v1.09c-0.05,0.07-0.12,0.13-0.21,0.17c-0.24,0.11-0.54,0.17-0.91,0.17c-0.71,0-1.27-0.27-1.68-0.82 c-0.41-0.55-0.61-1.17-0.61-1.88c0-0.71,0.2-1.32,0.61-1.84c0.41-0.52,0.95-0.77,1.63-0.77c0.85,0,1.41,0.41,1.67,1.24 c0,0.01,0.01,0.03,0.01,0.06c0.02,0.13,0.05,0.2,0.1,0.2h0.02c0.06,0,0.09-0.03,0.09-0.08v-1.32c0-0.03-0.01-0.04-0.04-0.04h-0.1 l-0.16,0.04h-0.05c-0.01,0-0.07-0.02-0.17-0.06c-0.56-0.2-1.09-0.3-1.59-0.3c-0.5,0-0.97,0.13-1.42,0.4 c-0.69,0.4-1.15,0.98-1.36,1.73c-0.07,0.25-0.11,0.55-0.11,0.91c0,0.36,0.08,0.72,0.23,1.09c0.31,0.73,0.83,1.23,1.57,1.52 c0.64,0.24,1.37,0.26,2.19,0.06c0.17-0.04,0.4-0.12,0.68-0.21c0.28-0.1,0.42-0.18,0.42-0.23v-1.29c0-0.18,0.07-0.31,0.22-0.38 c0.06-0.03,0.13-0.06,0.21-0.08c0.08-0.02,0.15-0.05,0.22-0.08c0.03-0.02,0.04-0.04,0.04-0.08C73.36,43.11,73.35,43.09,73.32,43.09 z"></path> </g> <g> <path class="st5" d="M75.94,39.96h-1.99c-0.02,0-0.03,0.01-0.03,0.03v0.1c0,0.02,0.03,0.03,0.09,0.03c0.36,0,0.55,0.16,0.55,0.48 v4.23c0,0.23-0.05,0.38-0.15,0.46c-0.1,0.07-0.2,0.11-0.32,0.11c-0.12,0-0.17,0.01-0.17,0.03v0.1c0,0.02,0.01,0.03,0.03,0.03h1.99 c0.02,0,0.03-0.01,0.03-0.03v-0.1c0-0.02-0.03-0.03-0.08-0.03c-0.37,0-0.55-0.16-0.55-0.48v-4.23c0-0.23,0.05-0.38,0.15-0.46 c0.1-0.07,0.2-0.11,0.32-0.11c0.12,0,0.17-0.01,0.17-0.03v-0.1C75.97,39.97,75.96,39.96,75.94,39.96z"></path> </g> <g> <path class="st5" d="M80.44,39.96h-3.74c-0.02,0-0.03,0.01-0.03,0.03v0.1c0,0.02,0.01,0.03,0.03,0.03h0.02 c0.1,0,0.21,0.02,0.31,0.07c0.18,0.07,0.27,0.2,0.27,0.37v4.28c0,0.12-0.04,0.22-0.11,0.3c-0.07,0.08-0.16,0.15-0.25,0.19 c-0.1,0.04-0.16,0.06-0.21,0.06s-0.07,0.01-0.07,0.03v0.1c0,0.02,0.01,0.03,0.03,0.03h2.16c0.02,0,0.03-0.01,0.03-0.03v-0.1 c0-0.02-0.03-0.03-0.09-0.03c-0.06,0-0.19-0.04-0.41-0.13c-0.22-0.09-0.32-0.22-0.32-0.4v-2.04c0-0.07,0.03-0.11,0.1-0.11h1.56 c0.14,0,0.24,0.03,0.32,0.08c0.14,0.09,0.21,0.26,0.21,0.5c0,0.02,0.01,0.03,0.03,0.03h0.1c0.02,0,0.03-0.01,0.03-0.03v-1.47 c0-0.02-0.01-0.03-0.03-0.03h-0.1c-0.02,0-0.03,0.01-0.03,0.03c0,0.35-0.18,0.52-0.53,0.52h-1.55c-0.06,0-0.1-0.03-0.1-0.09v-1.83 c0-0.05,0.03-0.08,0.08-0.08h1.5c0.08,0,0.15,0,0.2,0.01c0.14,0.01,0.26,0.08,0.37,0.19c0.06,0.08,0.11,0.19,0.14,0.33 c0.03,0.14,0.05,0.21,0.05,0.22h0.05c0.02,0,0.04,0,0.05-0.01c0.01-0.01,0.01-0.03,0.01-0.06v-0.96c0-0.04-0.01-0.06-0.02-0.07 C80.5,39.97,80.47,39.97,80.44,39.96z"></path> </g> <g> <path class="st5" d="M86.48,39.85c-0.01-0.03-0.03-0.04-0.06-0.04c-0.03,0-0.06,0.01-0.08,0.04c-0.02,0.02-0.04,0.05-0.07,0.08 c-0.02,0.03-0.09,0.04-0.21,0.04h-4.27c-0.12,0-0.2-0.03-0.24-0.08c-0.04-0.05-0.08-0.08-0.12-0.08c-0.04,0-0.06,0.04-0.08,0.12 l-0.15,1.24v0.13c0,0.01,0.01,0.02,0.02,0.02h0.07c0.02,0,0.04-0.02,0.04-0.07s0.03-0.16,0.08-0.33c0.08-0.32,0.24-0.51,0.48-0.57 h1.52c0.03,0.01,0.06,0.01,0.08,0.02c0.02,0.01,0.03,0.04,0.03,0.09v4.39c0,0.15-0.08,0.28-0.24,0.39 c-0.16,0.11-0.37,0.17-0.62,0.17h-0.11c-0.02,0-0.04,0.01-0.04,0.03v0.1c0,0.02,0.01,0.03,0.03,0.03h2.72 c0.02,0,0.03-0.01,0.03-0.03v-0.1c0-0.02-0.01-0.03-0.03-0.03h-0.11c-0.26,0-0.47-0.06-0.62-0.17s-0.24-0.24-0.24-0.39v-4.39 c0-0.06,0.01-0.09,0.03-0.09c0.02-0.01,0.05-0.01,0.08-0.02h1.53c0.17,0.04,0.3,0.13,0.38,0.29c0.08,0.15,0.14,0.36,0.18,0.63 c0.01,0.04,0.02,0.06,0.04,0.06h0.07c0.02,0,0.02-0.01,0.02-0.02v-0.13l-0.15-1.24C86.5,39.9,86.49,39.87,86.48,39.85z"></path> </g> <g> <path class="st5" d="M94.61,39.85c-0.01-0.03-0.03-0.04-0.06-0.04c-0.03,0-0.06,0.01-0.08,0.04c-0.02,0.02-0.04,0.05-0.07,0.08 c-0.02,0.03-0.09,0.04-0.21,0.04h-4.27c-0.12,0-0.2-0.03-0.24-0.08c-0.04-0.05-0.08-0.08-0.12-0.08c-0.04,0-0.06,0.04-0.08,0.12 l-0.15,1.24v0.13c0,0.01,0.01,0.02,0.02,0.02h0.07c0.02,0,0.04-0.02,0.04-0.07s0.03-0.16,0.08-0.33c0.08-0.32,0.24-0.51,0.48-0.57 h1.52c0.03,0.01,0.06,0.01,0.08,0.02c0.02,0.01,0.03,0.04,0.03,0.09v4.39c0,0.15-0.08,0.28-0.24,0.39 c-0.16,0.11-0.37,0.17-0.62,0.17H90.7c-0.02,0-0.04,0.01-0.04,0.03v0.1c0,0.02,0.01,0.03,0.03,0.03h2.72 c0.02,0,0.03-0.01,0.03-0.03v-0.1c0-0.02-0.01-0.03-0.03-0.03h-0.11c-0.26,0-0.47-0.06-0.62-0.17c-0.16-0.11-0.24-0.24-0.24-0.39 v-4.39c0-0.06,0.01-0.09,0.03-0.09c0.02-0.01,0.05-0.01,0.08-0.02h1.53c0.17,0.04,0.3,0.13,0.38,0.29 c0.08,0.15,0.14,0.36,0.18,0.63c0.01,0.04,0.02,0.06,0.04,0.06h0.07c0.02,0,0.02-0.01,0.02-0.02v-0.13l-0.15-1.24 C94.63,39.9,94.62,39.87,94.61,39.85z"></path> </g> <g> <path class="st5" d="M100.14,40.17c-0.45-0.25-0.95-0.38-1.52-0.38c-0.56,0-1.09,0.13-1.58,0.39c-0.49,0.26-0.87,0.61-1.15,1.06 c-0.28,0.45-0.42,0.94-0.42,1.48c0,0.75,0.21,1.37,0.63,1.86c0.33,0.38,0.76,0.67,1.3,0.87c0.39,0.14,0.81,0.21,1.24,0.21 c0.21,0,0.45-0.04,0.73-0.12c0.27-0.08,0.52-0.19,0.75-0.33c0.46-0.29,0.83-0.66,1.1-1.12c0.27-0.46,0.4-0.95,0.4-1.46 c0-0.51-0.13-0.99-0.4-1.42C100.94,40.77,100.58,40.42,100.14,40.17z M100.27,44.58c-0.38,0.52-0.9,0.78-1.58,0.78 c-0.48,0-0.89-0.14-1.26-0.41c-0.36-0.27-0.64-0.62-0.83-1.06c-0.19-0.43-0.29-0.87-0.29-1.31s0.08-0.85,0.24-1.23 c0.08-0.18,0.18-0.36,0.3-0.51c0.12-0.16,0.26-0.3,0.41-0.41c0.16-0.12,0.33-0.21,0.52-0.27c0.19-0.07,0.44-0.1,0.74-0.1 c0.3,0,0.6,0.08,0.89,0.23c0.29,0.15,0.54,0.36,0.75,0.62c0.42,0.53,0.63,1.15,0.63,1.88C100.78,43.52,100.61,44.12,100.27,44.58z"></path> </g> <g> <path class="st5" d="M110.41,43.09h-2.42c-0.03,0-0.04,0.02-0.04,0.07c0,0.05,0.01,0.07,0.04,0.07c0.38,0,0.63,0.06,0.77,0.17 c0.14,0.11,0.21,0.3,0.21,0.54v1.09c-0.05,0.07-0.12,0.13-0.21,0.17c-0.24,0.11-0.54,0.17-0.91,0.17c-0.71,0-1.27-0.27-1.68-0.82 c-0.41-0.55-0.61-1.17-0.61-1.88c0-0.71,0.2-1.32,0.61-1.84c0.41-0.52,0.95-0.77,1.63-0.77c0.85,0,1.41,0.41,1.67,1.24 c0,0.01,0.01,0.03,0.01,0.06c0.02,0.13,0.05,0.2,0.1,0.2h0.02c0.06,0,0.09-0.03,0.09-0.08v-1.32c0-0.03-0.01-0.04-0.04-0.04h-0.1 l-0.16,0.04h-0.05c-0.01,0-0.07-0.02-0.17-0.06c-0.56-0.2-1.09-0.3-1.59-0.3c-0.5,0-0.97,0.13-1.42,0.4 c-0.69,0.4-1.15,0.98-1.36,1.73c-0.07,0.25-0.11,0.55-0.11,0.91c0,0.36,0.08,0.72,0.23,1.09c0.31,0.73,0.83,1.23,1.57,1.52 c0.64,0.24,1.37,0.26,2.19,0.06c0.17-0.04,0.4-0.12,0.68-0.21c0.28-0.1,0.42-0.18,0.42-0.23v-1.29c0-0.18,0.07-0.31,0.22-0.38 c0.06-0.03,0.13-0.06,0.21-0.08c0.08-0.02,0.15-0.05,0.22-0.08c0.03-0.02,0.04-0.04,0.04-0.08 C110.45,43.11,110.44,43.09,110.41,43.09z"></path> </g> <g> <path class="st5" d="M113.03,39.96h-1.99c-0.02,0-0.03,0.01-0.03,0.03v0.1c0,0.02,0.03,0.03,0.09,0.03c0.36,0,0.55,0.16,0.55,0.48 v4.23c0,0.23-0.05,0.38-0.15,0.46c-0.1,0.07-0.2,0.11-0.32,0.11c-0.12,0-0.17,0.01-0.17,0.03v0.1c0,0.02,0.01,0.03,0.03,0.03h1.99 c0.02,0,0.03-0.01,0.03-0.03v-0.1c0-0.02-0.03-0.03-0.08-0.03c-0.37,0-0.55-0.16-0.55-0.48v-4.23c0-0.23,0.05-0.38,0.15-0.46 c0.1-0.07,0.2-0.11,0.32-0.11c0.12,0,0.17-0.01,0.17-0.03v-0.1C113.07,39.97,113.06,39.96,113.03,39.96z"></path> </g> <g> <path class="st5" d="M119.33,39.96h-2c-0.02,0-0.03,0.01-0.03,0.03v0.1c0,0.02,0.01,0.03,0.04,0.03s0.07,0.01,0.14,0.02 c0.07,0.01,0.12,0.02,0.16,0.03c0.04,0.01,0.08,0.01,0.15,0.02c0.06,0.01,0.12,0.05,0.18,0.12c0.06,0.07,0.09,0.14,0.09,0.21 c0,0.07-0.01,0.14-0.03,0.19l-1.38,3.73c-0.03,0.06-0.06,0.06-0.08,0l-1.5-3.65c-0.04-0.08-0.06-0.16-0.06-0.23 c0-0.23,0.17-0.36,0.51-0.4c0.09-0.01,0.16-0.02,0.23-0.03h0.06c0.02,0,0.03-0.01,0.03-0.03v-0.1c0-0.02-0.01-0.03-0.03-0.03h-2.34 c-0.02,0-0.03,0.01-0.03,0.03v0.1c0,0.02,0.01,0.03,0.02,0.03c0.01,0,0.03,0,0.05,0c0.33,0.05,0.54,0.18,0.63,0.38l2.09,5.06 c0.02,0.06,0.06,0.09,0.12,0.09h0.19c0.06,0,0.11-0.01,0.14-0.02c0.03-0.01,0.06-0.05,0.09-0.12l1.56-4.2 c0.04-0.12,0.09-0.24,0.13-0.37c0.16-0.48,0.41-0.76,0.74-0.82h0.15c0.02,0,0.03-0.01,0.03-0.03v-0.1 C119.37,39.97,119.36,39.96,119.33,39.96z"></path> </g> <g> <path class="st5" d="M124,44.11c-0.07,0-0.11,0.04-0.12,0.11c-0.02,0.22-0.09,0.42-0.2,0.59c-0.15,0.24-0.36,0.36-0.63,0.36h-1.32 c-0.06,0-0.11,0-0.17-0.01c-0.18-0.03-0.27-0.14-0.27-0.34v-1.93c0-0.03,0.01-0.04,0.04-0.04h1.36c0.07,0,0.14,0.01,0.2,0.02 c0.23,0.06,0.34,0.29,0.34,0.68c0,0.02,0.01,0.03,0.03,0.03h0.1c0.02,0,0.03-0.01,0.03-0.03v-1.7c0-0.02-0.01-0.03-0.03-0.03h-0.1 c-0.02,0-0.03,0.01-0.03,0.03c0,0.41-0.18,0.62-0.53,0.62h-1.37c-0.03,0-0.04-0.01-0.04-0.04v-2.05c0-0.03,0.02-0.05,0.05-0.05 h1.65c0.17,0.03,0.28,0.1,0.35,0.21c0.07,0.11,0.11,0.25,0.14,0.42c0.03,0.17,0.05,0.26,0.06,0.29c0.02,0.02,0.05,0.04,0.09,0.04 c0.04,0,0.06-0.01,0.06-0.04l-0.07-1.15c-0.01-0.06-0.02-0.1-0.04-0.11c-0.02-0.02-0.06-0.03-0.1-0.03h-3.77 c-0.02,0-0.03,0.01-0.03,0.03v0.1c0,0.02,0.01,0.03,0.03,0.03h0.08c0.09,0.01,0.18,0.03,0.27,0.05c0.31,0.07,0.46,0.24,0.46,0.5 v4.18c0,0.25-0.11,0.41-0.32,0.48c-0.1,0.03-0.2,0.04-0.32,0.04c-0.12,0-0.23,0.01-0.34,0.01h-0.09c-0.02,0-0.03,0.01-0.03,0.03 v0.11c0,0.02,0.01,0.03,0.03,0.03h4.41c0.02,0,0.04-0.02,0.06-0.06l0.13-1.33C124.05,44.13,124.03,44.11,124,44.11z"></path> </g> <g> <path class="st5" d="M125.33,44.61c-0.11,0-0.23,0.06-0.35,0.17c-0.07,0.06-0.11,0.17-0.11,0.32c0,0.15,0.05,0.26,0.16,0.34 c0.11,0.08,0.21,0.11,0.32,0.11c0.1,0,0.17,0.01,0.2,0.02c0.03,0.02,0.05,0.06,0.05,0.14c0,0.2-0.13,0.41-0.4,0.65 c-0.03,0.02-0.07,0.05-0.12,0.09c-0.06,0.04-0.09,0.08-0.09,0.12c0,0.07,0.02,0.11,0.06,0.11c0.05,0,0.13-0.04,0.24-0.12 c0.46-0.33,0.69-0.74,0.69-1.23c0-0.16-0.06-0.32-0.17-0.49C125.7,44.69,125.54,44.61,125.33,44.61z"></path> </g> <g> <path class="st5" d="M134.36,45.39c-0.1,0-0.21-0.03-0.33-0.09c-0.15-0.06-0.25-0.14-0.31-0.25c-0.03-0.05-0.05-0.1-0.08-0.16 c-0.02-0.06-0.05-0.12-0.09-0.19l-1.68-4.7c-0.01-0.01-0.01-0.02-0.02-0.02c-0.01,0-0.02-0.01-0.02-0.01h-0.79 c-0.01,0-0.02,0.01-0.02,0.02l0.04,0.13c0,0.01,0,0.01,0,0.02l-1.62,4.68c-0.13,0.37-0.37,0.56-0.73,0.58 c-0.03,0-0.05,0.01-0.05,0.03v0.1c0,0.02,0.01,0.03,0.03,0.03h2.02c0.02,0,0.03-0.01,0.03-0.03v-0.1c0-0.02-0.01-0.03-0.03-0.03 h-0.1c-0.27,0-0.49-0.06-0.65-0.19c-0.07-0.06-0.11-0.12-0.11-0.19v-0.04l0.59-1.74c0,0,0-0.01,0.01-0.03 c0.04-0.09,0.11-0.13,0.19-0.13h1.41c0.08,0,0.13,0.04,0.17,0.13c0.01,0.02,0.01,0.03,0.02,0.04l0.6,1.69 c0.01,0.02,0.01,0.04,0.01,0.06c0,0.21-0.18,0.33-0.55,0.37c-0.06,0.01-0.14,0.01-0.24,0.02c-0.1,0.01-0.15,0.02-0.15,0.04v0.1 c0,0.02,0.01,0.03,0.03,0.03h2.43c0.02,0,0.03-0.01,0.03-0.03v-0.09C134.39,45.4,134.38,45.39,134.36,45.39z M131.92,42.64h-1.17 c-0.04,0-0.06-0.02-0.06-0.05s0.01-0.06,0.02-0.09l0.55-1.62c0.03-0.07,0.05-0.11,0.06-0.11s0.03,0.04,0.06,0.11l0.59,1.62 c0.01,0.03,0.02,0.05,0.02,0.07C131.99,42.62,131.96,42.64,131.92,42.64z"></path> </g> <g> <path class="st5" d="M142.77,43.09h-2.42c-0.03,0-0.04,0.02-0.04,0.07c0,0.05,0.01,0.07,0.04,0.07c0.38,0,0.63,0.06,0.77,0.17 c0.14,0.11,0.21,0.3,0.21,0.54v1.09c-0.05,0.07-0.12,0.13-0.21,0.17c-0.24,0.11-0.54,0.17-0.91,0.17c-0.71,0-1.27-0.27-1.68-0.82 c-0.41-0.55-0.61-1.17-0.61-1.88c0-0.71,0.2-1.32,0.61-1.84c0.41-0.52,0.95-0.77,1.63-0.77c0.85,0,1.41,0.41,1.67,1.24 c0,0.01,0.01,0.03,0.01,0.06c0.02,0.13,0.05,0.2,0.1,0.2h0.02c0.06,0,0.09-0.03,0.09-0.08v-1.32c0-0.03-0.01-0.04-0.04-0.04h-0.1 l-0.16,0.04h-0.05c-0.01,0-0.07-0.02-0.17-0.06c-0.56-0.2-1.09-0.3-1.59-0.3c-0.5,0-0.97,0.13-1.42,0.4 c-0.69,0.4-1.15,0.98-1.36,1.73c-0.07,0.25-0.11,0.55-0.11,0.91c0,0.36,0.08,0.72,0.23,1.09c0.31,0.73,0.83,1.23,1.57,1.52 c0.64,0.24,1.37,0.26,2.19,0.06c0.17-0.04,0.4-0.12,0.68-0.21c0.28-0.1,0.42-0.18,0.42-0.23v-1.29c0-0.18,0.07-0.31,0.22-0.38 c0.06-0.03,0.13-0.06,0.21-0.08c0.08-0.02,0.15-0.05,0.22-0.08c0.03-0.02,0.04-0.04,0.04-0.08 C142.81,43.11,142.8,43.09,142.77,43.09z"></path> </g> <g> <path class="st5" d="M145.39,39.96h-1.99c-0.02,0-0.03,0.01-0.03,0.03v0.1c0,0.02,0.03,0.03,0.09,0.03c0.36,0,0.55,0.16,0.55,0.48 v4.23c0,0.23-0.05,0.38-0.15,0.46c-0.1,0.07-0.2,0.11-0.32,0.11c-0.12,0-0.17,0.01-0.17,0.03v0.1c0,0.02,0.01,0.03,0.03,0.03h1.99 c0.02,0,0.03-0.01,0.03-0.03v-0.1c0-0.02-0.03-0.03-0.08-0.03c-0.37,0-0.55-0.16-0.55-0.48v-4.23c0-0.23,0.05-0.38,0.15-0.46 c0.1-0.07,0.2-0.11,0.32-0.11c0.12,0,0.17-0.01,0.17-0.03v-0.1C145.42,39.97,145.41,39.96,145.39,39.96z"></path> </g> <g> <path class="st5" d="M149.89,39.96h-3.74c-0.02,0-0.03,0.01-0.03,0.03v0.1c0,0.02,0.01,0.03,0.03,0.03h0.02 c0.1,0,0.21,0.02,0.31,0.07c0.18,0.07,0.27,0.2,0.27,0.37v4.28c0,0.12-0.04,0.22-0.11,0.3c-0.07,0.08-0.16,0.15-0.25,0.19 c-0.1,0.04-0.17,0.06-0.21,0.06c-0.05,0-0.07,0.01-0.07,0.03v0.1c0,0.02,0.01,0.03,0.03,0.03h2.16c0.02,0,0.03-0.01,0.03-0.03v-0.1 c0-0.02-0.03-0.03-0.09-0.03s-0.19-0.04-0.41-0.13c-0.22-0.09-0.32-0.22-0.32-0.4v-2.04c0-0.07,0.03-0.11,0.1-0.11h1.56 c0.14,0,0.24,0.03,0.32,0.08c0.14,0.09,0.21,0.26,0.21,0.5c0,0.02,0.01,0.03,0.03,0.03h0.1c0.02,0,0.03-0.01,0.03-0.03v-1.47 c0-0.02-0.01-0.03-0.03-0.03h-0.1c-0.02,0-0.03,0.01-0.03,0.03c0,0.35-0.18,0.52-0.53,0.52h-1.55c-0.06,0-0.1-0.03-0.1-0.09v-1.83 c0-0.05,0.03-0.08,0.08-0.08h1.5c0.08,0,0.15,0,0.2,0.01c0.14,0.01,0.26,0.08,0.37,0.19c0.06,0.08,0.11,0.19,0.14,0.33 c0.03,0.14,0.05,0.21,0.05,0.22h0.05c0.02,0,0.04,0,0.05-0.01c0.01-0.01,0.01-0.03,0.01-0.06v-0.96c0-0.04-0.01-0.06-0.02-0.07 C149.95,39.97,149.93,39.97,149.89,39.96z"></path> </g> <g> <path class="st5" d="M155.93,39.85c-0.01-0.03-0.03-0.04-0.06-0.04s-0.06,0.01-0.08,0.04c-0.02,0.02-0.04,0.05-0.07,0.08 c-0.02,0.03-0.09,0.04-0.21,0.04h-4.27c-0.12,0-0.2-0.03-0.24-0.08c-0.04-0.05-0.08-0.08-0.12-0.08s-0.06,0.04-0.08,0.12 l-0.15,1.24v0.13c0,0.01,0.01,0.02,0.02,0.02h0.07c0.02,0,0.04-0.02,0.04-0.07s0.03-0.16,0.08-0.33c0.08-0.32,0.24-0.51,0.48-0.57 h1.52c0.03,0.01,0.06,0.01,0.08,0.02c0.02,0.01,0.03,0.04,0.03,0.09v4.39c0,0.15-0.08,0.28-0.24,0.39 c-0.16,0.11-0.37,0.17-0.62,0.17h-0.11c-0.02,0-0.04,0.01-0.04,0.03v0.1c0,0.02,0.01,0.03,0.03,0.03h2.72 c0.02,0,0.03-0.01,0.03-0.03v-0.1c0-0.02-0.01-0.03-0.03-0.03h-0.12c-0.26,0-0.47-0.06-0.62-0.17c-0.16-0.11-0.24-0.24-0.24-0.39 v-4.39c0-0.06,0.01-0.09,0.03-0.09c0.02-0.01,0.05-0.01,0.08-0.02h1.53c0.17,0.04,0.3,0.13,0.38,0.29 c0.08,0.15,0.14,0.36,0.18,0.63c0.01,0.04,0.02,0.06,0.04,0.06h0.07c0.02,0,0.02-0.01,0.02-0.02v-0.13l-0.15-1.24 C155.95,39.9,155.94,39.87,155.93,39.85z"></path> </g> <g> <path class="st5" d="M164.07,39.85c-0.01-0.03-0.03-0.04-0.06-0.04c-0.03,0-0.06,0.01-0.08,0.04c-0.02,0.02-0.04,0.05-0.07,0.08 c-0.02,0.03-0.09,0.04-0.21,0.04h-4.27c-0.12,0-0.2-0.03-0.24-0.08c-0.04-0.05-0.08-0.08-0.12-0.08c-0.04,0-0.06,0.04-0.08,0.12 l-0.15,1.24v0.13c0,0.01,0.01,0.02,0.02,0.02h0.07c0.02,0,0.04-0.02,0.04-0.07s0.03-0.16,0.08-0.33c0.08-0.32,0.24-0.51,0.48-0.57 h1.52c0.03,0.01,0.06,0.01,0.08,0.02c0.02,0.01,0.03,0.04,0.03,0.09v4.39c0,0.15-0.08,0.28-0.24,0.39 c-0.16,0.11-0.37,0.17-0.62,0.17h-0.11c-0.02,0-0.04,0.01-0.04,0.03v0.1c0,0.02,0.01,0.03,0.03,0.03h2.72 c0.02,0,0.03-0.01,0.03-0.03v-0.1c0-0.02-0.01-0.03-0.03-0.03h-0.12c-0.26,0-0.47-0.06-0.62-0.17c-0.16-0.11-0.24-0.24-0.24-0.39 v-4.39c0-0.06,0.01-0.09,0.03-0.09c0.02-0.01,0.05-0.01,0.08-0.02h1.53c0.17,0.04,0.3,0.13,0.38,0.29 c0.08,0.15,0.14,0.36,0.18,0.63c0.01,0.04,0.02,0.06,0.04,0.06h0.07c0.02,0,0.02-0.01,0.02-0.02v-0.13l-0.15-1.24 C164.08,39.9,164.07,39.87,164.07,39.85z"></path> </g> <g> <path class="st5" d="M169.59,40.17c-0.45-0.25-0.95-0.38-1.52-0.38s-1.09,0.13-1.58,0.39c-0.49,0.26-0.87,0.61-1.15,1.06 c-0.28,0.45-0.42,0.94-0.42,1.48c0,0.75,0.21,1.37,0.63,1.86c0.33,0.38,0.76,0.67,1.3,0.87c0.39,0.14,0.81,0.21,1.24,0.21 c0.21,0,0.45-0.04,0.73-0.12c0.27-0.08,0.52-0.19,0.75-0.33c0.46-0.29,0.83-0.66,1.1-1.12c0.27-0.46,0.4-0.95,0.4-1.46 c0-0.51-0.13-0.99-0.4-1.42C170.39,40.77,170.03,40.42,169.59,40.17z M169.72,44.58c-0.38,0.52-0.9,0.78-1.58,0.78 c-0.48,0-0.89-0.14-1.26-0.41c-0.36-0.27-0.64-0.62-0.83-1.06c-0.19-0.43-0.29-0.87-0.29-1.31s0.08-0.85,0.24-1.23 c0.08-0.18,0.18-0.36,0.3-0.51c0.12-0.16,0.26-0.3,0.41-0.41c0.16-0.12,0.33-0.21,0.52-0.27c0.19-0.07,0.44-0.1,0.74-0.1 c0.3,0,0.6,0.08,0.89,0.23c0.29,0.15,0.54,0.36,0.75,0.62c0.42,0.53,0.63,1.15,0.63,1.88C170.23,43.52,170.06,44.12,169.72,44.58z"></path> </g> <g> <path class="st5" d="M179.61,45.42c-0.06,0-0.2-0.03-0.43-0.08c-0.34-0.07-0.61-0.26-0.82-0.56c-0.56-0.8-1.09-1.42-1.6-1.89 c-0.2-0.18-0.31-0.29-0.32-0.32c0.01-0.03,0.08-0.12,0.22-0.27c0.34-0.34,0.67-0.8,1.01-1.38c0.11-0.19,0.21-0.33,0.31-0.42 c0.09-0.09,0.22-0.18,0.37-0.26c0.16-0.08,0.4-0.12,0.74-0.13c0.03,0,0.05-0.02,0.05-0.05v-0.08c0-0.02-0.01-0.03-0.03-0.03h-2.29 c-0.02,0-0.03,0.01-0.03,0.03v0.08c0,0.02,0.01,0.03,0.03,0.03h0.04c0.15,0,0.26,0.02,0.34,0.05c0.12,0.05,0.18,0.14,0.18,0.28 c0,0.14-0.1,0.35-0.3,0.63c-0.05,0.08-0.15,0.22-0.28,0.43c-0.14,0.21-0.27,0.39-0.41,0.54c-0.13,0.15-0.29,0.3-0.46,0.45 c-0.17,0.14-0.32,0.22-0.43,0.22c-0.04,0-0.07-0.12-0.07-0.35V40.6c0-0.19,0.09-0.33,0.27-0.42c0.13-0.06,0.25-0.1,0.36-0.1 c0.11,0,0.16-0.01,0.16-0.02v-0.08c0-0.02-0.01-0.03-0.03-0.03h-2.33c-0.02,0-0.03,0.01-0.03,0.03v0.08c0,0.02,0.01,0.03,0.03,0.03 c0.53,0.03,0.79,0.2,0.79,0.5v4.32c0,0.16-0.08,0.29-0.24,0.37c-0.16,0.08-0.3,0.12-0.41,0.12c-0.11,0-0.17,0.01-0.17,0.04v0.08 c0,0.02,0.01,0.03,0.03,0.03h2.33c0.02,0,0.03-0.01,0.03-0.03v-0.07c0-0.02-0.01-0.03-0.03-0.03c-0.51,0-0.76-0.18-0.76-0.55v-1.85 c0-0.04,0.01-0.06,0.04-0.06h0.08c0.26,0,0.59,0.25,0.99,0.74c0.1,0.13,0.2,0.24,0.29,0.34c0.51,0.58,0.78,0.95,0.8,1.1 c0,0.15-0.15,0.24-0.45,0.26c-0.09,0.01-0.13,0.02-0.13,0.04v0.08c0,0.02,0.01,0.03,0.03,0.03h2.59c0.02,0,0.03-0.01,0.03-0.03 v-0.07C179.7,45.43,179.67,45.42,179.61,45.42z"></path> </g> <g> <path class="st5" d="M184.33,44.11c-0.07,0-0.11,0.04-0.12,0.11c-0.02,0.22-0.09,0.42-0.2,0.59c-0.15,0.24-0.36,0.36-0.63,0.36 h-1.32c-0.06,0-0.11,0-0.17-0.01c-0.18-0.03-0.27-0.14-0.27-0.34v-1.93c0-0.03,0.01-0.04,0.04-0.04h1.36c0.07,0,0.14,0.01,0.2,0.02 c0.23,0.06,0.34,0.29,0.34,0.68c0,0.02,0.01,0.03,0.03,0.03h0.1c0.02,0,0.03-0.01,0.03-0.03v-1.7c0-0.02-0.01-0.03-0.03-0.03h-0.1 c-0.02,0-0.03,0.01-0.03,0.03c0,0.41-0.18,0.62-0.53,0.62h-1.37c-0.03,0-0.04-0.01-0.04-0.04v-2.05c0-0.03,0.02-0.05,0.05-0.05 h1.65c0.17,0.03,0.28,0.1,0.35,0.21c0.07,0.11,0.11,0.25,0.14,0.42c0.03,0.17,0.05,0.26,0.06,0.29c0.02,0.02,0.05,0.04,0.09,0.04 c0.04,0,0.06-0.01,0.06-0.04l-0.07-1.15c-0.01-0.06-0.02-0.1-0.04-0.11s-0.06-0.03-0.1-0.03h-3.77c-0.02,0-0.03,0.01-0.03,0.03v0.1 c0,0.02,0.01,0.03,0.03,0.03h0.08c0.09,0.01,0.18,0.03,0.27,0.05c0.31,0.07,0.46,0.24,0.46,0.5v4.18c0,0.25-0.11,0.41-0.32,0.48 c-0.1,0.03-0.2,0.04-0.32,0.04c-0.12,0-0.23,0.01-0.34,0.01h-0.09c-0.02,0-0.03,0.01-0.03,0.03v0.11c0,0.02,0.01,0.03,0.03,0.03 h4.41c0.02,0,0.04-0.02,0.06-0.06l0.13-1.33C184.38,44.13,184.36,44.11,184.33,44.11z"></path> </g> <g> <path class="st5" d="M189.34,44.11c-0.07,0-0.11,0.04-0.12,0.11c-0.02,0.22-0.09,0.42-0.2,0.59c-0.15,0.24-0.36,0.36-0.63,0.36 h-1.32c-0.06,0-0.11,0-0.17-0.01c-0.18-0.03-0.27-0.14-0.27-0.34v-1.93c0-0.03,0.01-0.04,0.04-0.04h1.36c0.07,0,0.14,0.01,0.2,0.02 c0.23,0.06,0.34,0.29,0.34,0.68c0,0.02,0.01,0.03,0.03,0.03h0.1c0.02,0,0.03-0.01,0.03-0.03v-1.7c0-0.02-0.01-0.03-0.03-0.03h-0.1 c-0.02,0-0.03,0.01-0.03,0.03c0,0.41-0.18,0.62-0.53,0.62h-1.37c-0.03,0-0.04-0.01-0.04-0.04v-2.05c0-0.03,0.02-0.05,0.05-0.05 h1.65c0.17,0.03,0.28,0.1,0.35,0.21c0.07,0.11,0.11,0.25,0.14,0.42c0.03,0.17,0.05,0.26,0.06,0.29c0.02,0.02,0.05,0.04,0.09,0.04 c0.04,0,0.06-0.01,0.06-0.04l-0.07-1.15c-0.01-0.06-0.02-0.1-0.04-0.11s-0.06-0.03-0.1-0.03h-3.77c-0.02,0-0.03,0.01-0.03,0.03v0.1 c0,0.02,0.01,0.03,0.03,0.03h0.08c0.09,0.01,0.18,0.03,0.27,0.05c0.31,0.07,0.46,0.24,0.46,0.5v4.18c0,0.25-0.11,0.41-0.32,0.48 c-0.1,0.03-0.2,0.04-0.32,0.04c-0.12,0-0.23,0.01-0.34,0.01h-0.09c-0.02,0-0.03,0.01-0.03,0.03v0.11c0,0.02,0.01,0.03,0.03,0.03 h4.41c0.02,0,0.04-0.02,0.06-0.06l0.13-1.33C189.39,44.13,189.37,44.11,189.34,44.11z"></path> </g> <g> <path class="st5" d="M192.6,39.9h-0.4l-2.22,0.06h-0.03c-0.03,0.01-0.05,0.03-0.05,0.07c0,0.06,0.03,0.1,0.08,0.1h0.18 c0.24,0,0.4,0.03,0.49,0.1c0.09,0.07,0.13,0.22,0.13,0.47v4.18c0,0.25-0.13,0.4-0.4,0.46c-0.03,0.01-0.07,0.02-0.12,0.03 c-0.05,0.02-0.09,0.02-0.12,0.02c-0.03,0-0.04,0.01-0.04,0.03v0.05c0,0.05,0.01,0.08,0.03,0.08h2.37c0.02,0,0.03-0.01,0.03-0.03 v-0.1c0-0.02-0.01-0.03-0.04-0.03c-0.03,0-0.08-0.01-0.15-0.02c-0.08-0.01-0.13-0.02-0.17-0.03c-0.26-0.04-0.42-0.09-0.5-0.16 c-0.08-0.07-0.12-0.18-0.12-0.32v-1.63c0-0.04,0.02-0.06,0.06-0.06h0.03l1.19,0.05c0.16,0,0.33-0.05,0.5-0.15 c0.17-0.1,0.32-0.22,0.46-0.38c0.31-0.35,0.46-0.74,0.46-1.17c0-0.43-0.16-0.8-0.47-1.11S193.07,39.93,192.6,39.9z M193.07,42.53 c-0.26,0.29-0.6,0.43-1.03,0.43l-0.4-0.02c-0.04,0-0.07-0.03-0.08-0.09l-0.01-0.12v-2.56c0-0.04,0.03-0.06,0.08-0.07 c0.06,0,0.1,0,0.14,0c0.04,0,0.07,0,0.1,0c0.03,0,0.06,0,0.1,0c0.03,0,0.07,0,0.1,0c0.42,0,0.76,0.12,1.01,0.36 c0.25,0.24,0.38,0.57,0.38,1C193.46,41.89,193.33,42.25,193.07,42.53z"></path> </g> </svg> 