<svg width="198" height="70" viewBox="0 0 198 70" fill="none" xmlns="http://www.w3.org/2000/svg">
<g clip-path="url(#clip0_220_195)">
<path d="M95.9 19.8998C89.3 18.3998 82.3 14.9998 77.8 9.7998C77.4 9.3998 76 7.5998 75.8 7.1998C75.6 6.6998 75.8 6.0998 76.2 5.6998C76.5 5.2998 77.9 4.7998 77.7 4.4998L71.3 1.7998C70.2 4.2998 69.3 6.8998 68.1 9.3998C64.3 17.2998 58.8 24.1998 52.5 30.1998C53.6 30.1998 54.6 29.1998 55.7 28.7998L61.8 24.6998V58.9998C61.8 60.8998 59.5 60.6998 58.2 61.1998L60.9 68.2998C62.2 66.0998 64.6 65.3998 66.6 64.0998C69.5 62.1998 72.8 58.9998 74.5 55.9998C74.7 55.6998 75.1 55.0998 74.9 54.6998C72.8 56.5998 70 57.9998 67.2 58.6998V43.4998H71.8C73.6 54.4998 81 63.3998 91.1 67.4998C91.4 65.5998 91.2 63.1998 92.7 61.7998L94.2 60.7998C89.5 59.4998 84.8 57.6998 80.9 54.6998L86.3 52.2998C87.2 51.6998 88.1 51.0998 89 50.3998C90.2 49.4998 90.9 47.8998 92.7 48.2998L88.5 42.8998C86.7 47.1998 83.9 51.2998 80.4 54.1998C79.7 54.1998 76.4 50.7998 75.7 50.0998C74.1 48.1998 72.7 45.8998 71.9 43.4998H80.8L80.6 48.0998C81 48.1998 80.9 48.0998 81 47.8998C82.4 45.7998 83.6 44.4998 86.1 43.7998V28.9998C86.1 28.4998 87.7 27.9998 87.6 27.7998L83.2 22.3998C81.8 22.6998 83.5 24.8998 79.7 25.3998C75.9 25.8998 71 24.9998 67.2 25.3998L63.3 23.1998C65.6 21.0998 67.8 18.8998 69.7 16.3998C71.2 17.6998 72 19.4998 72.6 21.2998C73.1 22.4998 72.9 24.1998 74.5 24.5998C75.9 24.8998 77.3 24.0998 77.5 22.5998C77.9 20.1998 75.6 18.1998 73.6 17.1998C73.1 16.8998 70.2 16.0998 70.1 15.8998L74.7 7.89981L76.9 12.7998C79.9 18.2998 85 22.9998 90.5 25.9998C90.9 26.1998 92.1 26.7998 92.3 26.4998C92.5 26.1998 92.3 25.3998 92.5 24.8998C93 22.3998 93.5 21.6998 95.4 20.1998C95.6 20.0998 95.7 20.1998 95.6 19.7998L95.9 19.8998ZM67.4 26.7998H81.1V33.3998L80.8 33.6998H67.4V26.7998ZM67.4 35.0998H81.1V42.1998H67.4V35.0998Z" fill="#A89A85"/>
<path d="M179.8 29H187.1C188.6 29 190.2 26.5 192.4 26.7C193.9 26.9 194.2 28 195.1 28.8C195.7 29.4 196.7 29.7 197.3 30.3H184.4V57.3C184.4 58.1 186.1 58.7 186.8 58.8C189.8 59.1 192.3 59 193.1 55.5L195.6 45.5V52.5C195.9 53.5 195.6 54.7 195.7 55.8C195.9 56.8 197.1 57.1 197.2 58.7C197.4 61 196.1 63.1 194 63.9C191.4 64.9 183.8 65 181.5 63.4C180.1 62.5 179 60.1 179 58.5V30.4H174.1C174.2 39.2 173.9 48.4 169.2 56C166.4 60.5 162.3 63.9 157.7 66.3L161.9 61C163.2 58.9 164.5 56.8 165.4 54.4C168.5 46.8 168.5 38.5 168.5 30.4H158.7L157.5 29.1H174.1L174.4 28.8V4C176.7 3.4 178.2 1.5 179.9 0V29H179.8Z" fill="#A89A85"/>
<path d="M194.5 11.5002C192.1 11.8002 191.9 13.6002 190.8 15.4002C188.5 19.3002 185.8 23.1002 182.1 25.7002C183.2 22.6002 184.5 19.6002 185.4 16.5002C186.3 13.3002 187.1 10.0002 187.6 6.7002L194.4 11.5002H194.5Z" fill="#A89A85"/>
<path d="M160.801 7.1001C165.101 10.1001 171.501 15.9001 170.701 21.8001C170.501 23.6001 168.801 24.6001 167.001 24.2001C165.201 23.8001 165.401 20.2001 165.101 18.7001C164.601 16.2001 163.901 13.8001 162.901 11.5001C162.301 10.0001 161.401 8.7001 160.801 7.2001V7.1001Z" fill="#A89A85"/>
<path d="M146.299 59.2001C146.199 58.4001 144.799 57.4001 144.799 56.9001V46.6001L142.199 56.2001C141.799 57.3001 141.299 58.6001 140.299 59.2001C138.399 60.5001 133.299 60.0001 130.799 60.0001C125.999 60.0001 119.799 60.7001 117.799 54.9001C116.899 52.3001 116.699 44.6001 116.999 41.8001C116.999 41.5001 116.999 41.3001 117.299 41.1001H136.399V46.0001C136.399 46.2001 136.399 47.0001 136.799 46.7001C137.799 44.4001 139.699 43.1001 141.899 42.2001V26.9001C141.899 26.4001 143.399 25.9001 143.399 25.7001L139.099 20.2001C138.499 20.0001 136.499 22.7001 135.899 23.1001H127.599L136.099 14.3001L138.299 13.7001L133.599 7.6001L130.199 10.7001H120.999C121.799 9.6001 122.099 7.4001 122.699 6.4001C122.999 5.9001 124.499 5.4001 124.399 5.0001C124.399 4.6001 118.599 1.8001 117.799 1.6001C115.899 10.6001 111.999 19.3001 107.199 27.1001C106.699 27.9001 105.499 29.4001 105.199 30.1001V30.4001C107.399 28.7001 109.399 26.8001 111.399 24.8001C111.699 33.1001 110.999 41.6001 111.399 49.9001C111.799 58.9001 114.799 64.9001 124.399 65.7001C128.099 66.0001 138.099 66.2001 141.399 65.2001C144.199 64.4001 146.599 62.3001 146.099 59.1001L146.299 59.2001ZM129.599 24.6001H136.399V40.0001H129.599V24.6001ZM124.099 39.9001H117.099V24.5001H124.099V39.9001ZM114.399 21.6001C116.799 18.6001 118.699 15.4001 120.599 12.1001H130.599C129.499 15.9001 128.199 19.6001 126.399 23.1001C125.999 23.3001 118.499 23.3001 117.499 23.2001C116.599 23.2001 115.199 22.1001 114.399 21.6001Z" fill="#A89A85"/>
<path d="M39.9004 46.4999C36.5004 45.2999 32.5004 43.0999 30.4004 40.0999H44.5004C44.0004 39.3999 43.1004 39.0999 42.5004 38.5999C40.9004 37.2999 40.6004 35.8999 38.1004 36.7999C35.6004 37.7999 37.2004 38.4999 33.2004 38.5999C29.2004 38.5999 25.1004 38.4999 21.1004 38.7999L24.7004 32.3999H32.1004V36.4999C33.5004 34.5999 35.0004 32.8999 37.4004 32.1999V21.5999C37.6004 20.6999 38.1004 20.6999 38.7004 20.3999C38.9004 20.3999 39.0004 20.3999 38.9004 20.0999L34.6004 14.9999C33.9004 14.7999 31.8004 17.8999 31.2004 17.8999H26.9004C27.3004 16.5999 28.9004 15.2999 30.2004 14.7999C30.9004 14.4999 31.5004 14.4999 32.0004 14.1999V11.3999C34.7004 11.1999 37.4004 11.0999 40.1004 11.1999C41.4004 11.1999 42.6004 11.4999 43.9004 11.3999C44.2004 11.3999 44.5004 11.5999 44.4004 11.0999C41.7004 10.0999 41.2004 6.6999 37.9004 8.1999C36.0004 8.9999 34.4004 10.8999 32.0004 9.6999V1.8999C30.6004 3.4999 28.8004 5.1999 26.7004 5.6999V9.5999L26.4004 9.8999H19.3004V1.8999L16.4004 4.3999L13.8004 5.6999V9.8999H1.90039C2.30039 10.4999 1.30039 10.8999 3.30039 11.1999C5.30039 11.4999 9.80039 11.1999 12.0004 11.1999C12.3004 11.1999 13.8004 10.6999 13.8004 11.1999V17.3999L8.50039 14.8999V37.1999L10.5004 34.2999C11.3004 33.3999 12.7004 33.0999 13.6004 32.4999C13.8004 32.3999 13.8004 31.9999 13.8004 31.9999H18.2004L14.8004 38.3999H1.70039C1.90039 38.7999 2.90039 39.7999 3.10039 39.7999H13.8004C10.2004 45.6999 5.30039 50.5999 -0.0996094 54.8999C1.30039 54.8999 2.60039 53.8999 3.90039 53.3999L11.1004 48.8999V69.5999L13.6004 66.3999L16.4004 65.0999V64.2999H23.7004C24.1004 64.2999 25.7004 63.8999 26.2004 63.6999C27.5004 63.2999 28.5004 62.4999 29.7004 61.9999V69.2999C30.4004 68.5999 30.8004 67.4999 31.5004 66.7999C32.3004 65.9999 33.8004 65.0999 35.0004 65.0999V49.3999C37.3004 51.2999 39.7004 53.0999 42.4004 54.3999C42.4004 51.8999 42.8004 48.8999 45.3004 47.7999C43.5004 47.0999 41.6004 46.7999 39.8004 46.1999L39.9004 46.4999ZM19.4004 14.1999V11.0999C21.5004 11.7999 24.0004 10.7999 26.2004 11.0999C26.5004 11.0999 26.7004 11.0999 26.9004 11.3999V17.4999L14.5004 17.7999L14.3004 17.3999C15.5004 15.5999 17.4004 14.4999 19.5004 14.0999L19.4004 14.1999ZM13.9004 19.2999L14.2004 18.9999H31.9004L32.2004 19.2999V24.0999L14.4004 24.3999C14.2004 24.3999 13.9004 24.1999 13.9004 24.0999V19.2999ZM14.2004 30.8999L13.9004 30.5999V25.6999H32.1004V30.8999H14.2004ZM28.8004 60.0999C28.1004 61.3999 25.5004 63.3999 24.1004 63.3999H16.6004V52.6999C16.6004 51.0999 18.3004 47.5999 19.4004 46.4999C22.1004 43.9999 28.1004 43.2999 29.4004 47.4999C30.2004 49.9999 30.1004 57.6999 28.8004 59.9999V60.0999ZM16.5004 47.5999C16.5004 47.1999 16.6004 45.0999 16.5004 44.8999C16.5004 44.8999 16.2004 44.8999 16.1004 44.8999C16.5004 44.1999 17.0004 43.8999 17.6004 43.1999C18.2004 42.4999 19.5004 40.2999 20.3004 40.1999C23.0004 39.7999 26.4004 40.4999 29.1004 40.1999L30.8004 44.1999C25.7004 42.3999 20.0004 43.6999 16.4004 47.6999L16.5004 47.5999Z" fill="#A89A85"/>
<path d="M26.2004 47.4C26.9004 52.6 20.6004 51.9 18.6004 55.3C17.1004 57.9 18.0004 61 20.3004 62.8C19.8004 61.2 19.1004 60.4 20.4004 58.4C21.7004 56.4 24.5004 56.2 26.3004 54.7C29.5004 52.1 28.4004 48 25.7004 45.5C25.6004 46.1 26.1004 46.7 26.2004 47.3V47.4Z" fill="#A89A85"/>
</g>
<defs>
<clipPath id="clip0_220_195">
<rect width="197.3" height="69.9" fill="white"/>
</clipPath>
</defs>
</svg>
