<svg width="96" height="139" viewBox="0 0 96 139" fill="none" xmlns="http://www.w3.org/2000/svg">
<g clip-path="url(#clip0_192_21)">
<path d="M95.7008 18.1C89.1008 16.6 82.1008 13.2 77.6008 8C77.2008 7.6 75.8008 5.8 75.6008 5.4C75.4008 4.9 75.6008 4.3 76.0008 3.9C76.3008 3.5 77.7008 3 77.5008 2.7L71.1008 0C70.0008 2.5 69.1008 5.1 67.9008 7.6C64.1008 15.5 58.6008 22.4 52.3008 28.4C53.4008 28.4 54.4008 27.4 55.5008 27L61.6008 22.9V57.2C61.6008 59.1 59.3008 58.9 58.0008 59.4L60.7008 66.5C62.0008 64.3 64.4008 63.6 66.4008 62.3C69.3008 60.4 72.6008 57.2 74.3008 54.2C74.5008 53.9 74.9008 53.3 74.7008 52.9C72.6008 54.8 69.8008 56.2 67.0008 56.9V41.7H71.6008C73.4008 52.7 80.8008 61.6 90.9008 65.7C91.2008 63.8 91.0008 61.4 92.5008 60L94.0008 59C89.3008 57.7 84.6008 55.9 80.7008 52.9L86.1008 50.5C87.0008 49.9 87.9008 49.3 88.8008 48.6C90.0008 47.7 90.7008 46.1 92.5008 46.5L88.3008 41.1C86.5008 45.4 83.7008 49.5 80.2008 52.4C79.5008 52.4 76.2008 49 75.5008 48.3C73.9008 46.4 72.5008 44.1 71.7008 41.7H80.6008L80.4008 46.3C80.8008 46.4 80.7008 46.3 80.8008 46.1C82.2008 44 83.4008 42.7 85.9008 42V27.2C85.9008 26.7 87.5008 26.2 87.4008 26L83.0008 20.6C81.6008 20.9 83.3008 23.1 79.5008 23.6C75.7008 24.1 70.8008 23.2 67.0008 23.6L63.1008 21.4C65.4008 19.3 67.6008 17.1 69.5008 14.6C71.0008 15.9 71.8008 17.7 72.4008 19.5C72.9008 20.7 72.7008 22.4 74.3008 22.8C75.7008 23.1 77.1008 22.3 77.3008 20.8C77.7008 18.4 75.4008 16.4 73.4008 15.4C72.9008 15.1 70.0008 14.3 69.9008 14.1L74.5008 6.1L76.7008 11C79.7008 16.5 84.8008 21.2 90.3008 24.2C90.7008 24.4 91.9008 25 92.1008 24.7C92.3008 24.4 92.1008 23.6 92.3008 23.1C92.8008 20.6 93.3008 19.9 95.2008 18.4C95.4008 18.3 95.5008 18.4 95.4008 18L95.7008 18.1ZM67.2008 25H80.9008V31.6L80.6008 31.9H67.2008V25ZM67.2008 33.2H80.9008V40.3H67.2008V33.2Z" fill="#A89A85"/>
<path d="M76.5012 101.1H83.8012C85.3012 101.1 86.9012 98.6 89.1012 98.8C90.6012 99 90.9012 100.1 91.8012 100.9C92.4012 101.5 93.4012 101.8 94.0012 102.4H81.1012V129.4C81.1012 130.2 82.8012 130.8 83.5012 130.9C86.5012 131.2 89.0012 131.1 89.8012 127.6L92.3012 117.6V124.6C92.6012 125.6 92.3012 126.8 92.4012 127.9C92.6012 128.9 93.8012 129.2 93.9012 130.8C94.1012 133.1 92.8012 135.2 90.7012 136C88.1012 137 80.5012 137.1 78.2012 135.5C76.8012 134.6 75.7012 132.2 75.7012 130.6V102.5H70.8012C70.9012 111.3 70.6012 120.5 65.9012 128.1C63.1012 132.6 59.0012 136 54.4012 138.4L58.6012 133.1C59.9012 131 61.2012 128.9 62.1012 126.5C65.2012 118.9 65.2012 110.6 65.2012 102.5H55.4012L54.2012 101.2H70.8012L71.1012 100.9V76.2C73.4012 75.6 74.9012 73.7 76.6012 72.2V101.2L76.5012 101.1Z" fill="#A89A85"/>
<path d="M91.1012 83.6C88.7012 83.9 88.5012 85.7 87.4012 87.5C85.1012 91.4 82.4012 95.2 78.7012 97.8C79.8012 94.7 81.1012 91.7 82.0012 88.6C82.9012 85.4 83.7012 82.1 84.2012 78.8L91.0012 83.6H91.1012Z" fill="#A89A85"/>
<path d="M57.502 79.2C61.802 82.2 68.202 88 67.402 93.9C67.202 95.7 65.502 96.7 63.702 96.3C61.902 95.9 62.102 92.3 61.802 90.8C61.302 88.3 60.602 85.9 59.602 83.6C59.002 82.1 58.102 80.8 57.502 79.3V79.2Z" fill="#A89A85"/>
<path d="M43.1996 131.4C43.0996 130.6 41.6996 129.6 41.6996 129.1V118.8L39.0996 128.4C38.6996 129.5 38.1996 130.8 37.1996 131.4C35.2996 132.7 30.1996 132.2 27.6996 132.2C22.8996 132.2 16.6996 132.9 14.6996 127.1C13.7996 124.5 13.5996 116.8 13.8996 114C13.8996 113.7 13.8996 113.5 14.1996 113.3H33.2996V118.2C33.2996 118.4 33.2996 119.2 33.6996 118.9C34.6996 116.6 36.5996 115.3 38.7996 114.4V99.1C38.7996 98.6 40.2996 98.1 40.2996 97.9L35.9996 92.4C35.3996 92.2 33.3996 94.9 32.7996 95.3H24.4996L32.9996 86.5L35.1996 85.9L30.4996 79.8L27.0996 82.9H17.8996C18.6996 81.8 18.9996 79.6 19.5996 78.6C19.8996 78.1 21.3996 77.6 21.2996 77.2C21.2996 76.8 15.4996 74 14.6996 73.8C12.7996 82.8 8.89961 91.5 4.09961 99.3C3.59961 100.1 2.39961 101.6 2.09961 102.3V102.6C4.29961 100.9 6.29961 99 8.29961 97C8.59961 105.3 7.89961 113.8 8.29961 122.1C8.69961 131.1 11.6996 137.1 21.2996 137.9C24.9996 138.2 34.9996 138.4 38.2996 137.4C41.0996 136.6 43.4996 134.5 42.9996 131.3L43.1996 131.4ZM26.4996 96.7H33.2996V112.1H26.4996V96.7ZM20.9996 112H13.9996V96.6H20.9996V112ZM11.2996 93.7C13.6996 90.7 15.5996 87.5 17.4996 84.2H27.4996C26.3996 88 25.0996 91.7 23.2996 95.2C22.8996 95.4 15.3996 95.4 14.3996 95.3C13.4996 95.3 12.0996 94.2 11.2996 93.7Z" fill="#A89A85"/>
<path d="M39.9004 44.6C36.5004 43.4 32.5004 41.2 30.4004 38.2H44.5004C44.0004 37.5 43.1004 37.2 42.5004 36.7C40.9004 35.4 40.6004 34 38.1004 34.9C35.6004 35.9 37.2004 36.6 33.2004 36.7C29.2004 36.7 25.1004 36.6 21.1004 36.9L24.7004 30.5H32.1004V34.6C33.5004 32.7 35.0004 31 37.4004 30.3V19.7C37.6004 18.8 38.1004 18.8 38.7004 18.5C38.9004 18.5 39.0004 18.5 38.9004 18.2L34.6004 13.1C33.9004 12.9 31.8004 16 31.2004 16H26.9004C27.3004 14.7 28.9004 13.4 30.2004 12.9C30.9004 12.6 31.5004 12.6 32.0004 12.3V9.5C34.7004 9.3 37.4004 9.2 40.1004 9.3C41.4004 9.3 42.6004 9.6 43.9004 9.5C44.2004 9.5 44.5004 9.7 44.4004 9.2C41.7004 8.2 41.2004 4.8 37.9004 6.3C36.0004 7.1 34.4004 9 32.0004 7.8V0C30.6004 1.6 28.8004 3.3 26.7004 3.8V7.7L26.4004 8H19.3004V0L16.4004 2.5L13.8004 3.8V8H1.90039C2.30039 8.6 1.30039 9 3.30039 9.3C5.30039 9.6 9.80039 9.3 12.0004 9.3C12.3004 9.3 13.8004 8.8 13.8004 9.3V15.5L8.50039 13V35.3L10.5004 32.4C11.3004 31.5 12.7004 31.2 13.6004 30.6C13.8004 30.5 13.8004 30.1 13.8004 30.1H18.2004L14.8004 36.5H1.70039C1.90039 36.9 2.90039 37.9 3.10039 37.9H13.8004C10.2004 43.8 5.30039 48.7 -0.0996094 53C1.30039 53 2.60039 52 3.90039 51.5L11.1004 47V67.7L13.6004 64.5L16.4004 63.2V62.4H23.7004C24.1004 62.4 25.7004 62 26.2004 61.8C27.5004 61.4 28.5004 60.6 29.7004 60.1V67.4C30.4004 66.7 30.8004 65.6 31.5004 64.9C32.3004 64.1 33.8004 63.2 35.0004 63.2V47.5C37.3004 49.4 39.7004 51.2 42.4004 52.5C42.4004 50 42.8004 47 45.3004 45.9C43.5004 45.2 41.6004 44.9 39.8004 44.3L39.9004 44.6ZM19.4004 12.3V9.2C21.5004 9.9 24.0004 8.9 26.2004 9.2C26.5004 9.2 26.7004 9.2 26.9004 9.5V15.6L14.5004 15.9L14.3004 15.5C15.5004 13.7 17.4004 12.6 19.5004 12.2L19.4004 12.3ZM13.9004 17.4L14.2004 17.1H31.9004L32.2004 17.4V22.2L14.4004 22.5C14.2004 22.5 13.9004 22.3 13.9004 22.2V17.4ZM14.2004 29L13.9004 28.7V23.8H32.1004V29H14.2004ZM28.8004 58.2C28.1004 59.5 25.5004 61.5 24.1004 61.5H16.6004V50.8C16.6004 49.2 18.3004 45.7 19.4004 44.6C22.1004 42.1 28.1004 41.4 29.4004 45.6C30.2004 48.1 30.1004 55.8 28.8004 58.1V58.2ZM16.5004 45.7C16.5004 45.3 16.6004 43.2 16.5004 43C16.5004 43 16.2004 43 16.1004 43C16.5004 42.3 17.0004 42 17.6004 41.3C18.2004 40.6 19.5004 38.4 20.3004 38.3C23.0004 37.9 26.4004 38.6 29.1004 38.3L30.8004 42.3C25.7004 40.5 20.0004 41.8 16.4004 45.8L16.5004 45.7Z" fill="#A89A85"/>
<path d="M26.2004 45.5001C26.9004 50.7001 20.6004 50.0001 18.6004 53.4001C17.1004 56.0001 18.0004 59.1001 20.3004 60.9001C19.8004 59.3001 19.1004 58.5001 20.4004 56.5001C21.7004 54.5001 24.5004 54.3001 26.3004 52.8001C29.5004 50.2001 28.4004 46.1001 25.7004 43.6001C25.6004 44.2001 26.1004 44.8001 26.2004 45.4001V45.5001Z" fill="#A89A85"/>
</g>
<defs>
<clipPath id="clip0_192_21">
<rect width="95.7" height="138.4" fill="white"/>
</clipPath>
</defs>
</svg>
